<svg width="51" height="51" viewBox="0 0 51 51" fill="none" xmlns="http://www.w3.org/2000/svg">
<g clip-path="url(#clip0_310_2)">
<path d="M38.7812 0.5H12.2188C5.74666 0.5 0.5 5.74666 0.5 12.2188V38.7812C0.5 45.2533 5.74666 50.5 12.2188 50.5H38.7812C45.2533 50.5 50.5 45.2533 50.5 38.7812V12.2188C50.5 5.74666 45.2533 0.5 38.7812 0.5Z" fill="url(#paint0_linear_310_2)"/>
<path fill-rule="evenodd" clip-rule="evenodd" d="M31.3045 6.94746C31.6236 7.34356 31.7861 7.87813 32.1115 8.94688L39.2201 32.2986C36.55 30.9131 33.6842 29.9428 30.7215 29.4213L26.0932 13.7807C26.0655 13.6875 26.0158 13.6024 25.9482 13.5326C25.8806 13.4627 25.7971 13.4103 25.7048 13.3798C25.6125 13.3492 25.5143 13.3414 25.4183 13.357C25.3224 13.3727 25.2317 13.4113 25.1539 13.4695C25.0498 13.5477 24.9738 13.6574 24.9373 13.7824L20.3648 29.4135C17.3888 29.9325 14.5099 30.9043 11.8281 32.2951L18.9713 8.9416C19.298 7.87441 19.4609 7.34102 19.7801 6.9457C20.0617 6.5966 20.4281 6.32548 20.8443 6.1582C21.3158 5.96875 21.8736 5.96875 22.9896 5.96875H28.0918C29.2092 5.96875 29.7678 5.96875 30.2396 6.15859C30.6562 6.32626 31.0228 6.59773 31.3045 6.94746Z" fill="#31274A"/>
<path fill-rule="evenodd" clip-rule="evenodd" d="M32.1551 33.4099C30.9832 34.4121 28.6441 35.0953 25.95 35.0953C22.6432 35.0953 19.8715 34.0658 19.1361 32.6814C18.8732 33.475 18.8143 34.383 18.8143 34.9632C18.8143 34.9632 18.641 37.8119 20.6223 39.7931C20.6223 39.299 20.8185 38.8252 21.1679 38.4759C21.5173 38.1265 21.9911 37.9302 22.4852 37.9302C24.2484 37.9302 24.2465 39.4687 24.2447 40.7169V40.8283C24.2447 42.7228 25.4025 44.3468 27.0492 45.0312C26.7957 44.5095 26.6644 43.937 26.6652 43.357C26.6652 41.5501 27.7262 40.8773 28.959 40.0957C29.9399 39.4736 31.0297 38.7824 31.7809 37.3957C32.1853 36.6488 32.3965 35.8126 32.3951 34.9632C32.3951 34.4216 32.3109 33.8998 32.1551 33.4099Z" fill="#FF5D01"/>
<path fill-rule="evenodd" clip-rule="evenodd" d="M32.1551 33.4099C30.9832 34.4121 28.6441 35.0953 25.95 35.0953C22.6432 35.0953 19.8715 34.0658 19.1361 32.6814C18.8732 33.475 18.8143 34.383 18.8143 34.9632C18.8143 34.9632 18.641 37.8119 20.6223 39.7931C20.6223 39.299 20.8185 38.8252 21.1679 38.4759C21.5173 38.1265 21.9911 37.9302 22.4852 37.9302C24.2484 37.9302 24.2465 39.4687 24.2447 40.7169V40.8283C24.2447 42.7228 25.4025 44.3468 27.0492 45.0312C26.7957 44.5095 26.6644 43.937 26.6652 43.357C26.6652 41.5501 27.7262 40.8773 28.959 40.0957C29.9399 39.4736 31.0297 38.7824 31.7809 37.3957C32.1853 36.6488 32.3965 35.8126 32.3951 34.9632C32.3951 34.4216 32.3109 33.8998 32.1551 33.4099Z" fill="url(#paint1_linear_310_2)"/>
</g>
<defs>
<linearGradient id="paint0_linear_310_2" x1="25.5" y1="0.5" x2="25.5" y2="50.5" gradientUnits="userSpaceOnUse">
<stop offset="0.193" stop-color="#FCB3B2"/>
<stop offset="1" stop-color="#C587EE"/>
</linearGradient>
<linearGradient id="paint1_linear_310_2" x1="37.4314" y1="25.2587" x2="30.4932" y2="39.7835" gradientUnits="userSpaceOnUse">
<stop stop-color="#FF1639"/>
<stop offset="1" stop-color="#FF1639" stop-opacity="0"/>
</linearGradient>
<clipPath id="clip0_310_2">
<rect width="50" height="50" fill="white" transform="translate(0.5 0.5)"/>
</clipPath>
</defs>
</svg>
