<svg width="51" height="51" viewBox="0 0 51 51" fill="none" xmlns="http://www.w3.org/2000/svg">
<g id="skill-icons:css" clip-path="url(#clip0_50_46)">
<g id="Group">
<path id="Vector" d="M38.7812 0.75H12.2188C5.74666 0.75 0.5 5.99666 0.5 12.4688V39.0312C0.5 45.5033 5.74666 50.75 12.2188 50.75H38.7812C45.2533 50.75 50.5 45.5033 50.5 39.0312V12.4688C50.5 5.99666 45.2533 0.75 38.7812 0.75Z" fill="#0277BD"/>
<path id="Vector_2" d="M10.9986 20.799L11.5576 27.0377H25.5187V20.799H10.9986ZM25.5186 8.17188H9.875L10.4422 14.4105H25.5186V8.17188ZM25.5186 43.4924V37.0016L25.4912 37.0088L18.5432 35.1328L18.099 30.157H11.8363L12.7104 39.9527L25.4898 43.5004L25.5186 43.4924Z" fill="#EBEBEB"/>
<path id="Vector_3" d="M33.1793 27.0377L32.4551 35.1287L25.4971 37.0068V43.4973L38.2867 39.9527L38.3805 38.8986L39.8465 22.4744L39.9986 20.799L41.125 8.17188H25.4971V14.4105H34.2879L33.7203 20.799H25.4971V27.0377H33.1793Z" fill="white"/>
</g>
</g>
<defs>
<clipPath id="clip0_50_46">
<rect width="50" height="50" fill="white" transform="translate(0.5 0.75)"/>
</clipPath>
</defs>
</svg>
