<svg width="51" height="51" viewBox="0 0 51 51" fill="none" xmlns="http://www.w3.org/2000/svg">
<path d="M38.7812 0.5H12.2188C5.74666 0.5 0.5 5.74666 0.5 12.2188V38.7812C0.5 45.2533 5.74666 50.5 12.2188 50.5H38.7812C45.2533 50.5 50.5 45.2533 50.5 38.7812V12.2188C50.5 5.74666 45.2533 0.5 38.7812 0.5Z" fill="#101828"/>
<g clip-path="url(#clip0_263_5)">
<path d="M21.2466 45.364L6.12329 31.7464L10.3593 11.8413L29.7017 5.55383L44.825 19.1713L40.5891 39.0764L21.2466 45.364ZM13.9332 29.215L22.9508 37.3225L34.4836 33.5666L37.0152 21.7029L27.9975 13.5786L16.4647 17.3512L13.9332 29.215Z" fill="#3A33D1"/>
<path d="M33.6066 39.5562H17.3417L9.20099 25.4589L17.3417 11.3616H33.6066L41.7473 25.4589L33.6066 39.5562ZM20.2042 34.5924H30.7441L36.0224 25.4589L30.7441 16.3254H20.2042L14.9424 25.4589L20.2042 34.5924Z" fill="#6464E2"/>
</g>
<defs>
<clipPath id="clip0_263_5">
<rect width="38.94" height="40" fill="white" transform="translate(6.03003 5.5)"/>
</clipPath>
</defs>
</svg>
