<svg width="51" height="51" viewBox="0 0 51 51" fill="none" xmlns="http://www.w3.org/2000/svg">
<g id="skill-icons:figma-dark" clip-path="url(#clip0_50_111)">
<g id="Group">
<path id="Vector" d="M38.7812 0.75H12.2188C5.74666 0.75 0.5 5.99666 0.5 12.4688V39.0312C0.5 45.5033 5.74666 50.75 12.2188 50.75H38.7812C45.2533 50.75 50.5 45.5033 50.5 39.0312V12.4688C50.5 5.99666 45.2533 0.75 38.7812 0.75Z" fill="#242938"/>
<g id="Clip path group">
<mask id="mask0_50_111" style="mask-type:luminance" maskUnits="userSpaceOnUse" x="12" y="6" width="27" height="40">
<g id="skillIconsFigmaDark0">
<path id="Vector_2" d="M12.4141 6.21875H38.4609V45.2812H12.4141V6.21875Z" fill="white"/>
</g>
</mask>
<g mask="url(#mask0_50_111)">
<g id="Group_2">
<path id="Vector_3" d="M18.9272 45.2812C22.5209 45.2812 25.4375 42.3646 25.4375 38.7709V32.2603H18.9272C15.3334 32.2603 12.4166 35.1771 12.4166 38.7709C12.4166 42.3646 15.3334 45.2812 18.9272 45.2812Z" fill="#0ACF83"/>
<path id="Vector_4" d="M12.4166 25.75C12.4166 22.1563 15.3334 19.2397 18.9272 19.2397H25.4375V32.2604H18.9272C15.3334 32.2604 12.4166 29.3438 12.4166 25.75Z" fill="#A259FF"/>
<path id="Vector_5" d="M12.4166 12.7291C12.4166 9.13535 15.3334 6.21875 18.9272 6.21875H25.4375V19.2396H18.9272C15.3334 19.2396 12.4166 16.3229 12.4166 12.7291Z" fill="#F24E1E"/>
<path id="Vector_6" d="M25.4375 6.21875H31.9479C35.5416 6.21875 38.4584 9.13535 38.4584 12.7291C38.4584 16.3229 35.5416 19.2396 31.9479 19.2396H25.4375V6.21875Z" fill="#FF7262"/>
<path id="Vector_7" d="M38.4584 25.75C38.4584 29.3438 35.5416 32.2604 31.9479 32.2604C28.3541 32.2604 25.4375 29.3438 25.4375 25.75C25.4375 22.1563 28.3541 19.2397 31.9479 19.2397C35.5416 19.2397 38.4584 22.1563 38.4584 25.75Z" fill="#1ABCFE"/>
</g>
</g>
</g>
</g>
</g>
<defs>
<clipPath id="clip0_50_111">
<rect width="50" height="50" fill="white" transform="translate(0.5 0.75)"/>
</clipPath>
</defs>
</svg>
