<svg width="51" height="51" viewBox="0 0 51 51" fill="none" xmlns="http://www.w3.org/2000/svg">
<g id="skill-icons:git" clip-path="url(#clip0_50_103)">
<g id="Group">
<path id="Vector" d="M38.7812 0.75H12.2188C5.74666 0.75 0.5 5.99666 0.5 12.4688V39.0312C0.5 45.5033 5.74666 50.75 12.2188 50.75H38.7812C45.2533 50.75 50.5 45.5033 50.5 39.0312V12.4688C50.5 5.99666 45.2533 0.75 38.7812 0.75Z" fill="#F03C2E"/>
<g id="Clip path group">
<mask id="mask0_50_103" style="mask-type:luminance" maskUnits="userSpaceOnUse" x="5" y="6" width="41" height="40">
<g id="skillIconsGit0">
<path id="Vector_2" d="M5.96875 6.21875H45.0312V45.2812H5.96875V6.21875Z" fill="white"/>
</g>
</mask>
<g mask="url(#mask0_50_103)">
<g id="Group_2">
<path id="Vector_3" d="M44.294 24.0105L27.2395 6.95606C26.8879 6.60402 26.4397 6.36426 25.9517 6.26715C25.4637 6.17004 24.9579 6.21995 24.4983 6.41055C24.1932 6.53701 23.9159 6.72238 23.6825 6.95606L20.1424 10.4961L24.6346 14.9883C25.6796 14.6221 26.8758 14.8723 27.7083 15.7049C28.1045 16.1019 28.3812 16.6024 28.5066 17.1491C28.632 17.6959 28.6011 18.2668 28.4174 18.7969L32.7473 23.1268C33.7948 22.7654 35.0032 22.9984 35.8393 23.8371C36.2582 24.2558 36.5434 24.7893 36.6588 25.3701C36.7743 25.951 36.7148 26.553 36.488 27.1C36.1838 27.8334 35.6009 28.416 34.8673 28.7197C34.1338 29.0235 33.3096 29.0235 32.576 28.7197C32.2128 28.5691 31.8827 28.3486 31.6048 28.0705C30.7258 27.1916 30.5087 25.8977 30.953 24.8148L26.9149 20.7768V31.4031C27.208 31.5481 27.4759 31.7394 27.7083 31.9695C28.2697 32.5309 28.585 33.2923 28.585 34.0862C28.585 34.8801 28.2697 35.6415 27.7083 36.2029C27.1469 36.7643 26.3855 37.0797 25.5916 37.0797C24.7977 37.0797 24.0363 36.7643 23.4749 36.2029C23.0559 35.7845 22.7705 35.2511 22.6548 34.6703C22.5392 34.0895 22.5985 33.4875 22.8253 32.9404C22.9758 32.5772 23.1966 32.2473 23.4749 31.9695C23.7641 31.6814 24.0852 31.4629 24.4551 31.3164V20.5912C24.0881 20.4411 23.7548 20.2191 23.4749 19.9383C23.0546 19.5184 22.7688 18.9829 22.654 18.4C22.5392 17.8172 22.6006 17.2133 22.8303 16.6654L18.3993 12.2369L6.70495 23.9189C6.3529 24.2708 6.11312 24.7191 6.01594 25.2072C5.91877 25.6953 5.96857 26.2013 6.15905 26.6611C6.28564 26.9664 6.47114 27.2438 6.70495 27.4773L23.7606 44.5305C23.9941 44.7641 24.2713 44.9494 24.5764 45.076C25.1929 45.3311 25.8854 45.3311 26.5018 45.076C26.8069 44.9494 27.0841 44.7641 27.3176 44.5305L44.294 27.5811C44.5278 27.3475 44.7132 27.0701 44.8397 26.7649C44.9663 26.4596 45.0314 26.1324 45.0315 25.802C45.0315 25.4715 44.9664 25.1442 44.8399 24.8389C44.7133 24.5336 44.5278 24.2562 44.294 24.0227" fill="white"/>
</g>
</g>
</g>
</g>
</g>
<defs>
<clipPath id="clip0_50_103">
<rect width="50" height="50" fill="white" transform="translate(0.5 0.75)"/>
</clipPath>
</defs>
</svg>
