<svg width="51" height="51" viewBox="0 0 51 51" fill="none" xmlns="http://www.w3.org/2000/svg">
<path d="M38.7812 0.5H12.2188C5.74666 0.5 0.5 5.74666 0.5 12.2188V38.7812C0.5 45.2533 5.74666 50.5 12.2188 50.5H38.7812C45.2533 50.5 50.5 45.2533 50.5 38.7812V12.2188C50.5 5.74666 45.2533 0.5 38.7812 0.5Z" fill="black"/>
<g clip-path="url(#clip0_311_11)">
<path d="M14.03 5.15571C12.01 5.53226 10.18 6.54686 8.70001 8.12629C6.81001 10.1555 5.89001 12.624 5.96001 15.5318C6.01001 18.2723 6.94001 20.5316 8.79001 22.4771C10.29 24.0461 11.89 24.9247 13.98 25.3221C14.61 25.4372 14.8 25.5941 14.35 25.615C14.21 25.6255 14.07 25.6359 14.03 25.6464C13.98 25.6569 13.77 25.6987 13.55 25.751C10.68 26.3472 7.88001 28.7948 6.70001 31.7444C6.15001 33.1251 5.97001 34.0874 5.96001 35.6982C5.96001 38.6584 6.88001 40.9804 8.85001 43.0201C10.66 44.8924 12.84 45.8756 15.35 45.9488C19.81 46.0743 23.58 43.3548 24.99 38.9721C25.26 38.1249 25.46 37.1103 25.41 36.8174C25.4 36.7547 25.43 36.6919 25.47 36.6919C25.52 36.6919 25.57 36.8174 25.58 36.9743C25.65 37.9262 26.03 39.265 26.53 40.3005C27.56 42.4553 29.5 44.3485 31.59 45.2271C33.72 46.1266 36.41 46.1999 38.53 45.4154C39.99 44.861 41.11 44.1184 42.26 42.9155C43.52 41.5976 44.44 39.8508 44.86 37.968C45.05 37.1521 45.11 35.2589 44.99 34.2862C44.57 31.0646 42.5 28.0731 39.65 26.5773C38.62 26.0334 36.59 25.4581 36.15 25.5941C36.1 25.6046 36.09 25.5836 36.13 25.5418C36.17 25.5 36.27 25.4477 36.35 25.4372C36.42 25.4267 36.67 25.3849 36.9 25.3535C40 24.9038 43.05 22.4039 44.28 19.3078C44.86 17.8539 45.03 16.923 45.04 15.3017C45.04 13.6909 44.9 12.8541 44.4 11.4943C43.53 9.13042 41.57 6.97571 39.36 5.94019C37.93 5.27077 36.67 5.01973 35 5.06157C32.02 5.13479 29.5 6.46318 27.55 8.98399C26.63 10.1659 25.84 12.0696 25.64 13.5758C25.61 13.8164 25.57 14.0779 25.56 14.1511C25.55 14.2348 25.5 14.3394 25.46 14.3812C25.42 14.4231 25.4 14.4126 25.41 14.3603C25.48 14.1302 25.28 13.011 25.04 12.1951C24.54 10.5425 23.8 9.2664 22.61 8.02169C21.23 6.5887 19.76 5.74146 17.8 5.24985C16.97 5.04065 14.96 4.98835 14.03 5.15571ZM26.02 18.5338C26.95 21.2951 28.72 23.3348 31.23 24.5586C32.07 24.9665 33.51 25.3954 34.02 25.3954C34.45 25.3954 34.27 25.5627 33.78 25.6359C31.81 25.9079 29.95 26.9016 28.44 28.4705C26.87 30.1023 25.86 32.2047 25.57 34.464C25.52 34.8092 25.45 34.8405 25.42 34.5163C25.22 31.8281 23.46 28.8366 21.13 27.2154C19.98 26.4204 17.89 25.615 16.9 25.5836C16.73 25.5732 16.57 25.5209 16.53 25.4686C16.5 25.4058 16.51 25.3954 16.57 25.4267C16.73 25.5313 18.6 25.0816 19.4 24.7469C22.47 23.4394 24.94 20.1864 25.36 16.923C25.46 16.1594 25.53 16.2012 25.67 17.0798C25.75 17.5401 25.9 18.199 26.02 18.5338ZM15 25.4581C15 25.5418 14.81 25.5941 14.76 25.5209C14.73 25.4686 14.77 25.4267 14.85 25.4267C14.93 25.4267 15 25.4477 15 25.4581Z" fill="#0AE448"/>
</g>
<defs>
<clipPath id="clip0_311_11">
<rect width="40" height="41.8391" fill="white" transform="translate(5.5 4.58044)"/>
</clipPath>
</defs>
</svg>
