<svg width="51" height="51" viewBox="0 0 51 51" fill="none" xmlns="http://www.w3.org/2000/svg">
<g id="skill-icons:html" clip-path="url(#clip0_50_74)">
<g id="Group">
<path id="Vector" d="M38.7812 0.75H12.2188C5.74666 0.75 0.5 5.99666 0.5 12.4688V39.0312C0.5 45.5033 5.74666 50.75 12.2188 50.75H38.7812C45.2533 50.75 50.5 45.5033 50.5 39.0312V12.4688C50.5 5.99666 45.2533 0.75 38.7812 0.75Z" fill="#E14E1D"/>
<path id="Vector_2" d="M9.875 8.17188L11.5566 27.0377H33.1797L32.4541 35.1295L25.492 37.0119L18.543 35.1322L18.0783 29.9365H11.8164L12.7119 39.9523L25.4906 43.5016L38.2855 39.9523L40.001 20.7998H17.2625L16.6916 14.4111H40.5662L41.125 8.17188H9.875Z" fill="white"/>
<path id="Vector_3" d="M25.5 8.17188H9.875L11.5566 27.0377H25.5V20.7998H17.2625L16.6916 14.4111H25.5V8.17188ZM25.5 37.0092L25.492 37.0119L18.543 35.1322L18.0783 29.9365H11.8164L12.7119 39.9523L25.4906 43.5016L25.5002 43.4988V37.0092H25.5Z" fill="#EBEBEB"/>
</g>
</g>
<defs>
<clipPath id="clip0_50_74">
<rect width="50" height="50" fill="white" transform="translate(0.5 0.75)"/>
</clipPath>
</defs>
</svg>
