<svg width="51" height="51" viewBox="0 0 51 51" fill="none" xmlns="http://www.w3.org/2000/svg">
<g id="skill-icons:javascript" clip-path="url(#clip0_50_70)">
<g id="Group">
<path id="Vector" d="M38.7812 0.75H12.2188C5.74666 0.75 0.5 5.99666 0.5 12.4688V39.0312C0.5 45.5033 5.74666 50.75 12.2188 50.75H38.7812C45.2533 50.75 50.5 45.5033 50.5 39.0312V12.4688C50.5 5.99666 45.2533 0.75 38.7812 0.75Z" fill="#F0DB4F"/>
<path id="Vector_2" d="M13.6469 42.5336L17.4731 40.218C18.2114 41.5268 18.8829 42.6342 20.4936 42.6342C22.0375 42.6342 23.011 42.0303 23.011 39.681V23.7049H27.7098V39.7475C27.7098 44.6141 24.8571 46.8293 20.695 46.8293C16.9362 46.8293 14.7543 44.8826 13.6467 42.5332M30.262 42.0301L34.0877 39.815C35.095 41.4598 36.404 42.668 38.7196 42.668C40.6667 42.668 41.9081 41.6945 41.9081 40.3519C41.9081 38.741 40.6327 38.1703 38.4846 37.2309L37.3102 36.7271C33.9202 35.2842 31.6713 33.4717 31.6713 29.6455C31.6713 26.1213 34.3565 23.4361 38.552 23.4361C41.5391 23.4361 43.6872 24.4768 45.2309 27.1953L41.5725 29.5447C40.7668 28.1016 39.8946 27.531 38.552 27.531C37.1758 27.531 36.3032 28.4037 36.3032 29.5447C36.3032 30.9543 37.1758 31.525 39.1895 32.3978L40.3641 32.9012C44.3581 34.6131 46.6069 36.358 46.6069 40.2848C46.6069 44.5141 43.2842 46.8297 38.8204 46.8297C34.4573 46.8297 31.6379 44.7488 30.262 42.0301Z" fill="#323330"/>
</g>
</g>
<defs>
<clipPath id="clip0_50_70">
<rect width="50" height="50" fill="white" transform="translate(0.5 0.75)"/>
</clipPath>
</defs>
</svg>
