<svg width="51" height="51" viewBox="0 0 51 51" fill="none" xmlns="http://www.w3.org/2000/svg">
<path d="M38.7812 0.5H12.2188C5.74666 0.5 0.5 5.74666 0.5 12.2188V38.7812C0.5 45.2533 5.74666 50.5 12.2188 50.5H38.7812C45.2533 50.5 50.5 45.2533 50.5 38.7812V12.2188C50.5 5.74666 45.2533 0.5 38.7812 0.5Z" fill="#1A2B34"/>
<path d="M32.6425 16.2137H34.0713C34.2606 16.2137 34.4421 16.2889 34.576 16.4228C34.7098 16.5567 34.785 16.7382 34.785 16.9275C34.785 17.1168 34.7098 17.2983 34.576 17.4322C34.4421 17.566 34.2606 17.6412 34.0713 17.6412H32.6425C32.4532 17.6412 32.2717 17.566 32.1378 17.4322C32.004 17.2983 31.9288 17.1168 31.9288 16.9275C31.9288 16.7382 32.004 16.5567 32.1378 16.4228C32.2717 16.2889 32.4532 16.2137 32.6425 16.2137Z" fill="#56B3B4"/>
<path d="M11.2138 39.0713H18.3563C18.5456 39.0713 18.7271 39.1465 18.8609 39.2803C18.9948 39.4142 19.07 39.5957 19.07 39.785C19.07 39.8788 19.0515 39.9716 19.0157 40.0582C18.9798 40.1448 18.9272 40.2235 18.8609 40.2897C18.7947 40.356 18.716 40.4086 18.6294 40.4445C18.5428 40.4803 18.45 40.4988 18.3563 40.4988H11.2138C11.0247 40.4988 10.8433 40.4238 10.7095 40.2902C10.5757 40.1566 10.5003 39.9754 10.5 39.7863C10.4998 39.6925 10.5182 39.5995 10.554 39.5128C10.5898 39.426 10.6423 39.3472 10.7086 39.2808C10.7749 39.2144 10.8536 39.1617 10.9403 39.1257C11.027 39.0898 11.1199 39.0713 11.2138 39.0713Z" fill="#EA5E5E"/>
<path d="M28.3575 27.6425H32.6437C32.833 27.6425 33.0146 27.7177 33.1484 27.8515C33.2823 27.9854 33.3575 28.1669 33.3575 28.3562C33.3575 28.5455 33.2823 28.727 33.1484 28.8609C33.0146 28.9948 32.833 29.07 32.6437 29.07H28.3575C28.1682 29.07 27.9866 28.9948 27.8528 28.8609C27.7189 28.727 27.6437 28.5455 27.6437 28.3562C27.6437 28.1669 27.7189 27.9854 27.8528 27.8515C27.9866 27.7177 28.1682 27.6425 28.3575 27.6425Z" fill="#BF85BF"/>
<path d="M19.7863 27.6425H25.5C25.6893 27.6425 25.8709 27.7177 26.0047 27.8515C26.1386 27.9854 26.2138 28.1669 26.2138 28.3562C26.2138 28.5455 26.1386 28.727 26.0047 28.8609C25.8709 28.9948 25.6893 29.07 25.5 29.07H19.7863C19.597 29.07 19.4154 28.9948 19.2816 28.8609C19.1477 28.727 19.0725 28.5455 19.0725 28.3562C19.0725 28.1669 19.1477 27.9854 19.2816 27.8515C19.4154 27.7177 19.597 27.6425 19.7863 27.6425Z" fill="#EA5E5E"/>
<path d="M11.2138 27.6425H16.9288C17.118 27.6425 17.2996 27.7177 17.4334 27.8515C17.5673 27.9854 17.6425 28.1669 17.6425 28.3562C17.6425 28.5455 17.5673 28.727 17.4334 28.8609C17.2996 28.9948 17.118 29.07 16.9288 29.07H11.2138C11.0247 29.07 10.8433 28.9949 10.7095 28.8613C10.5757 28.7278 10.5003 28.5465 10.5 28.3575C10.4998 28.2636 10.5182 28.1707 10.554 28.0839C10.5898 27.9972 10.6423 27.9184 10.7086 27.8519C10.7749 27.7855 10.8536 27.7329 10.9403 27.6969C11.027 27.661 11.1199 27.6425 11.2138 27.6425Z" fill="#56B3B4"/>
<path d="M11.2138 33.3575H18.3562C18.5455 33.3575 18.7271 33.4327 18.8609 33.5665C18.9948 33.7004 19.07 33.8819 19.07 34.0712C19.07 34.2605 18.9948 34.4421 18.8609 34.5759C18.7271 34.7098 18.5455 34.785 18.3562 34.785H11.2138C11.0245 34.785 10.8429 34.7098 10.7091 34.5759C10.5752 34.4421 10.5 34.2605 10.5 34.0712C10.5 33.8819 10.5752 33.7004 10.7091 33.5665C10.8429 33.4327 11.0245 33.3575 11.2138 33.3575ZM11.2138 21.9287H18.3562C18.5455 21.9287 18.7271 22.0039 18.8609 22.1378C18.9948 22.2716 19.07 22.4532 19.07 22.6425C19.07 22.8318 18.9948 23.0133 18.8609 23.1472C18.7271 23.281 18.5455 23.3562 18.3562 23.3562H11.2138C11.0245 23.3562 10.8429 23.281 10.7091 23.1472C10.5752 23.0133 10.5 22.8318 10.5 22.6425C10.5 22.4532 10.5752 22.2716 10.7091 22.1378C10.8429 22.0039 11.0245 21.9287 11.2138 21.9287Z" fill="#BF85BF"/>
<path d="M18.3575 13.3575H32.6425C32.8318 13.3575 33.0133 13.4327 33.1472 13.5666C33.281 13.7005 33.3562 13.882 33.3562 14.0713C33.3562 14.2606 33.281 14.4421 33.1472 14.576C33.0133 14.7098 32.8318 14.785 32.6425 14.785H18.3575C18.1682 14.785 17.9866 14.7098 17.8528 14.576C17.7189 14.4421 17.6437 14.2606 17.6437 14.0713C17.6437 13.882 17.7189 13.7005 17.8528 13.5666C17.9866 13.4327 18.1682 13.3575 18.3575 13.3575Z" fill="#F7BA3E"/>
<path d="M11.2138 13.3575H15.5C15.6893 13.3575 15.8708 13.4327 16.0047 13.5666C16.1386 13.7005 16.2138 13.882 16.2138 14.0713C16.2139 14.1651 16.1956 14.2581 16.1598 14.3448C16.124 14.4316 16.0714 14.5104 16.0051 14.5768C15.9388 14.6432 15.8601 14.6959 15.7734 14.7318C15.6868 14.7678 15.5938 14.7863 15.5 14.7863H11.2138C11.1199 14.7863 11.027 14.7678 10.9403 14.7318C10.8536 14.6959 10.7749 14.6432 10.7086 14.5768C10.6423 14.5104 10.5898 14.4316 10.554 14.3448C10.5182 14.2581 10.4998 14.1651 10.5 14.0713C10.5 13.882 10.5752 13.7005 10.7091 13.5666C10.8429 13.4327 11.0245 13.3575 11.2138 13.3575Z" fill="#EA5E5E"/>
<path d="M16.9288 36.2137H18.3575C18.5468 36.2137 18.7284 36.2889 18.8622 36.4228C18.9961 36.5567 19.0713 36.7382 19.0713 36.9275C19.0713 37.1168 18.9961 37.2983 18.8622 37.4322C18.7284 37.566 18.5468 37.6412 18.3575 37.6412H16.9288C16.7395 37.6412 16.5579 37.566 16.4241 37.4322C16.2902 37.2983 16.215 37.1168 16.215 36.9275C16.215 36.7382 16.2902 36.5567 16.4241 36.4228C16.5579 36.2889 16.7395 36.2137 16.9288 36.2137Z" fill="#F7BA3E"/>
<path d="M16.9288 19.0713H18.3575C18.5468 19.0713 18.7283 19.1465 18.8622 19.2803C18.9961 19.4142 19.0713 19.5957 19.0713 19.785C19.0713 19.9743 18.9961 20.1559 18.8622 20.2897C18.7283 20.4236 18.5468 20.4988 18.3575 20.4988H16.9288C16.7395 20.4988 16.5579 20.4236 16.4241 20.2897C16.2902 20.1559 16.215 19.9743 16.215 19.785C16.215 19.5957 16.2902 19.4142 16.4241 19.2803C16.5579 19.1465 16.7395 19.0713 16.9288 19.0713ZM11.2138 36.2138H14.0713C14.2605 36.2138 14.4421 36.289 14.5759 36.4228C14.7098 36.5567 14.785 36.7382 14.785 36.9275C14.785 37.1168 14.7098 37.2984 14.5759 37.4322C14.4421 37.5661 14.2605 37.6413 14.0713 37.6413H11.2138C11.0247 37.6413 10.8433 37.5663 10.7095 37.4327C10.5757 37.2991 10.5003 37.1179 10.5 36.9288C10.4998 36.835 10.5182 36.742 10.554 36.6553C10.5898 36.5685 10.6423 36.4897 10.7086 36.4233C10.7749 36.3569 10.8536 36.3042 10.9403 36.2682C11.027 36.2323 11.1199 36.2138 11.2138 36.2138Z" fill="#56B3B4"/>
<path d="M11.2138 19.0713H14.0713C14.2605 19.0713 14.4421 19.1465 14.5759 19.2803C14.7098 19.4142 14.785 19.5957 14.785 19.785C14.7852 19.8789 14.7668 19.9718 14.731 20.0586C14.6952 20.1453 14.6427 20.2241 14.5764 20.2905C14.5101 20.357 14.4314 20.4096 14.3447 20.4456C14.258 20.4815 14.1651 20.5 14.0713 20.5H11.2138C11.0245 20.5 10.8429 20.4248 10.7091 20.291C10.5752 20.1571 10.5 19.9756 10.5 19.7863C10.4998 19.6925 10.5182 19.5995 10.554 19.5128C10.5898 19.426 10.6423 19.3472 10.7086 19.2808C10.7749 19.2144 10.8536 19.1617 10.9403 19.1257C11.027 19.0898 11.1199 19.0713 11.2138 19.0713Z" fill="#F7BA3E"/>
<path opacity="0.5" d="M29.7863 36.2137H31.215C31.4043 36.2137 31.5858 36.2889 31.7197 36.4228C31.8536 36.5567 31.9288 36.7382 31.9288 36.9275C31.9288 37.1168 31.8536 37.2983 31.7197 37.4322C31.5858 37.566 31.4043 37.6412 31.215 37.6412H29.7863C29.597 37.6412 29.4154 37.566 29.2816 37.4322C29.1477 37.2983 29.0725 37.1168 29.0725 36.9275C29.0725 36.7382 29.1477 36.5567 29.2816 36.4228C29.4154 36.2889 29.597 36.2137 29.7863 36.2137ZM21.2138 36.2137H26.9275C27.1168 36.2137 27.2983 36.2889 27.4322 36.4228C27.5661 36.5567 27.6413 36.7382 27.6413 36.9275C27.6413 37.1168 27.5661 37.2983 27.4322 37.4322C27.2983 37.566 27.1168 37.6412 26.9275 37.6412H21.2138C21.0247 37.6412 20.8433 37.5662 20.7095 37.4326C20.5757 37.2991 20.5003 37.1178 20.5 36.9287C20.4998 36.8349 20.5182 36.742 20.554 36.6552C20.5898 36.5685 20.6423 36.4897 20.7086 36.4232C20.7749 36.3568 20.8536 36.3041 20.9403 36.2682C21.027 36.2323 21.1199 36.2137 21.2138 36.2137ZM34.0713 36.2137H39.785C39.9743 36.2137 40.1558 36.2889 40.2897 36.4228C40.4236 36.5567 40.4988 36.7382 40.4988 36.9275C40.4988 37.0212 40.4803 37.114 40.4444 37.2006C40.4086 37.2872 40.356 37.3659 40.2897 37.4322C40.2234 37.4985 40.1447 37.551 40.0581 37.5869C39.9715 37.6228 39.8787 37.6412 39.785 37.6412H34.0713C33.9775 37.6412 33.8847 37.6228 33.7981 37.5869C33.7115 37.551 33.6328 37.4985 33.5666 37.4322C33.5003 37.3659 33.4477 37.2872 33.4118 37.2006C33.376 37.114 33.3575 37.0212 33.3575 36.9275C33.3575 36.7382 33.4327 36.5567 33.5666 36.4228C33.7004 36.2889 33.882 36.2137 34.0713 36.2137Z" fill="#D0D4D8"/>
<path d="M22.6425 24.7863H34.0713C34.2606 24.7863 34.4421 24.8615 34.576 24.9953C34.7098 25.1292 34.785 25.3107 34.785 25.5C34.785 25.6893 34.7098 25.8708 34.576 26.0047C34.4421 26.1386 34.2606 26.2138 34.0713 26.2138H22.6425C22.4532 26.2138 22.2717 26.1386 22.1378 26.0047C22.004 25.8708 21.9288 25.6893 21.9288 25.5C21.9288 25.3107 22.004 25.1292 22.1378 24.9953C22.2717 24.8615 22.4532 24.7863 22.6425 24.7863Z" fill="#56B3B4"/>
<path d="M15.5 24.7863H19.7863C19.9756 24.7863 20.1571 24.8615 20.291 24.9953C20.4248 25.1292 20.5 25.3107 20.5 25.5C20.5 25.6893 20.4248 25.8708 20.291 26.0047C20.1571 26.1386 19.9756 26.2138 19.7863 26.2138H15.5C15.3107 26.2138 15.1292 26.1386 14.9953 26.0047C14.8615 25.8708 14.7863 25.6893 14.7863 25.5C14.7863 25.3107 14.8615 25.1292 14.9953 24.9953C15.1292 24.8615 15.3107 24.7863 15.5 24.7863Z" fill="#F7BA3E"/>
<path d="M11.2138 24.7863H12.6425C12.7363 24.7861 12.8293 24.8044 12.916 24.8402C13.0028 24.876 13.0816 24.9286 13.148 24.9949C13.2144 25.0612 13.2671 25.1399 13.303 25.2266C13.339 25.3133 13.3575 25.4062 13.3575 25.5C13.3575 25.6893 13.2823 25.8708 13.1484 26.0047C13.0146 26.1386 12.833 26.2138 12.6438 26.2138H11.2138C11.0245 26.2138 10.8429 26.1386 10.7091 26.0047C10.5752 25.8708 10.5 25.6893 10.5 25.5C10.5 25.3107 10.5752 25.1292 10.7091 24.9953C10.8429 24.8615 11.0245 24.7863 11.2138 24.7863Z" fill="#EA5E5E"/>
<path d="M24.0712 16.2137H29.785C29.8789 16.2136 29.972 16.232 30.0588 16.2678C30.1456 16.3037 30.2245 16.3564 30.2909 16.4228C30.3574 16.4892 30.41 16.5681 30.4459 16.6549C30.4818 16.7418 30.5001 16.8348 30.5 16.9287C30.5 17.118 30.4248 17.2996 30.2909 17.4334C30.1571 17.5673 29.9755 17.6425 29.7862 17.6425H24.0712C23.8819 17.6425 23.7004 17.5673 23.5665 17.4334C23.4327 17.2996 23.3575 17.118 23.3575 16.9287C23.3573 16.8349 23.3757 16.742 23.4115 16.6552C23.4473 16.5685 23.4998 16.4897 23.5661 16.4232C23.6324 16.3568 23.7111 16.3041 23.7978 16.2682C23.8845 16.2322 23.9774 16.2137 24.0712 16.2137Z" fill="#BF85BF"/>
<path d="M11.2138 16.2137H21.2138C21.403 16.2137 21.5846 16.2889 21.7184 16.4228C21.8523 16.5567 21.9275 16.7382 21.9275 16.9275C21.9275 17.1168 21.8523 17.2983 21.7184 17.4322C21.5846 17.566 21.403 17.6412 21.2138 17.6412H11.2138C11.0247 17.6412 10.8433 17.5662 10.7095 17.4326C10.5757 17.2991 10.5003 17.1178 10.5 16.9287C10.4998 16.8349 10.5182 16.742 10.554 16.6552C10.5898 16.5685 10.6423 16.4896 10.7086 16.4232C10.7749 16.3568 10.8536 16.3041 10.9403 16.2682C11.027 16.2322 11.1199 16.2137 11.2138 16.2137Z" fill="#56B3B4"/>
<path d="M15.5 30.5H28.3575C28.4512 30.5 28.5441 30.5185 28.6306 30.5543C28.7172 30.5902 28.7959 30.6428 28.8622 30.7091C28.9285 30.7753 28.9811 30.854 29.0169 30.9406C29.0528 31.0272 29.0713 31.12 29.0713 31.2137C29.0713 31.403 28.9961 31.5846 28.8622 31.7184C28.7283 31.8523 28.5468 31.9275 28.3575 31.9275H15.5C15.3107 31.9275 15.1292 31.8523 14.9953 31.7184C14.8615 31.5846 14.7863 31.403 14.7863 31.2137C14.7863 31.12 14.8047 31.0272 14.8406 30.9406C14.8765 30.854 14.929 30.7753 14.9953 30.7091C15.0616 30.6428 15.1403 30.5902 15.2269 30.5543C15.3135 30.5185 15.4063 30.5 15.5 30.5Z" fill="#F7BA3E"/>
<path d="M11.2138 30.5H12.6425C12.7362 30.5 12.829 30.5185 12.9156 30.5543C13.0022 30.5902 13.0809 30.6428 13.1472 30.7091C13.2135 30.7753 13.266 30.854 13.3019 30.9406C13.3378 31.0272 13.3562 31.12 13.3562 31.2137C13.3562 31.403 13.2811 31.5846 13.1472 31.7184C13.0133 31.8523 12.8318 31.9275 12.6425 31.9275H11.2138C11.0245 31.9275 10.8429 31.8523 10.7091 31.7184C10.5752 31.5846 10.5 31.403 10.5 31.2137C10.5 31.12 10.5185 31.0272 10.5543 30.9406C10.5902 30.854 10.6428 30.7753 10.7091 30.7091C10.7753 30.6428 10.854 30.5902 10.9406 30.5543C11.0272 30.5185 11.12 30.5 11.2138 30.5Z" fill="#BF85BF"/>
<path d="M28.3575 19.0713H35.5C35.6893 19.0713 35.8708 19.1465 36.0047 19.2803C36.1385 19.4142 36.2137 19.5957 36.2137 19.785C36.2139 19.8789 36.1956 19.9718 36.1598 20.0586C36.124 20.1453 36.0714 20.2241 36.0051 20.2905C35.9388 20.357 35.8601 20.4096 35.7734 20.4456C35.6867 20.4815 35.5938 20.5 35.5 20.5H28.3575C28.1682 20.5 27.9866 20.4248 27.8528 20.291C27.7189 20.1571 27.6437 19.9756 27.6437 19.7863C27.6436 19.6925 27.6619 19.5995 27.6977 19.5128C27.7335 19.426 27.7861 19.3472 27.8523 19.2808C27.9186 19.2144 27.9974 19.1617 28.0841 19.1257C28.1707 19.0898 28.2637 19.0713 28.3575 19.0713Z" fill="#EA5E5E"/>
<path d="M28.3575 21.9287H35.5C35.6893 21.9287 35.8708 22.0039 36.0047 22.1378C36.1385 22.2716 36.2137 22.4532 36.2137 22.6425C36.2137 22.8318 36.1385 23.0133 36.0047 23.1472C35.8708 23.281 35.6893 23.3562 35.5 23.3562H28.3575C28.1682 23.3562 27.9866 23.281 27.8528 23.1472C27.7189 23.0133 27.6437 22.8318 27.6437 22.6425C27.6437 22.4532 27.7189 22.2716 27.8528 22.1378C27.9866 22.0039 28.1682 21.9287 28.3575 21.9287Z" fill="#F7BA3E"/>
<path d="M11.2138 10.5H28.3575C28.5468 10.5 28.7283 10.5752 28.8622 10.7091C28.9961 10.8429 29.0713 11.0245 29.0713 11.2138C29.0713 11.403 28.9961 11.5846 28.8622 11.7184C28.7283 11.8523 28.5468 11.9275 28.3575 11.9275H11.2138C11.0245 11.9275 10.8429 11.8523 10.7091 11.7184C10.5752 11.5846 10.5 11.403 10.5 11.2138C10.5 11.0245 10.5752 10.8429 10.7091 10.7091C10.8429 10.5752 11.0245 10.5 11.2138 10.5Z" fill="#56B3B4"/>
<path opacity="0.5" d="M31.2137 10.5H39.785C39.8788 10.4998 39.9718 10.5182 40.0585 10.554C40.1453 10.5898 40.2241 10.6423 40.2905 10.7086C40.3569 10.7749 40.4096 10.8536 40.4456 10.9403C40.4815 11.027 40.5 11.1199 40.5 11.2138C40.5 11.403 40.4248 11.5846 40.2909 11.7184C40.1571 11.8523 39.9755 11.9275 39.7863 11.9275H31.2137C31.0245 11.9275 30.8429 11.8523 30.7091 11.7184C30.5752 11.5846 30.5 11.403 30.5 11.2138C30.5 11.12 30.5185 11.0272 30.5543 10.9406C30.5902 10.854 30.6428 10.7753 30.7091 10.7091C30.7753 10.6428 30.854 10.5902 30.9406 10.5543C31.0272 10.5185 31.12 10.5 31.2137 10.5ZM31.2137 30.5H34.0713C34.165 30.5 34.2578 30.5185 34.3444 30.5543C34.431 30.5902 34.5097 30.6428 34.5759 30.7091C34.6422 30.7753 34.6948 30.854 34.7307 30.9406C34.7665 31.0272 34.785 31.12 34.785 31.2137C34.785 31.403 34.7098 31.5846 34.5759 31.7184C34.4421 31.8523 34.2605 31.9275 34.0713 31.9275H31.2137C31.12 31.9275 31.0272 31.909 30.9406 31.8732C30.854 31.8373 30.7753 31.7847 30.7091 31.7184C30.6428 31.6522 30.5902 31.5735 30.5543 31.4869C30.5185 31.4003 30.5 31.3075 30.5 31.2137C30.5 31.12 30.5185 31.0272 30.5543 30.9406C30.5902 30.854 30.6428 30.7753 30.7091 30.7091C30.7753 30.6428 30.854 30.5902 30.9406 30.5543C31.0272 30.5185 31.12 30.5 31.2137 30.5ZM36.9288 30.5H39.7863C39.88 30.5 39.9728 30.5185 40.0594 30.5543C40.146 30.5902 40.2247 30.6428 40.2909 30.7091C40.3572 30.7753 40.4098 30.854 40.4457 30.9406C40.4815 31.0272 40.5 31.12 40.5 31.2137C40.5 31.3075 40.4815 31.4003 40.4457 31.4869C40.4098 31.5735 40.3572 31.6522 40.2909 31.7184C40.2247 31.7847 40.146 31.8373 40.0594 31.8732C39.9728 31.909 39.88 31.9275 39.7863 31.9275H36.9288C36.7395 31.9275 36.5579 31.8523 36.4241 31.7184C36.2902 31.5846 36.215 31.403 36.215 31.2137C36.215 31.12 36.2335 31.0272 36.2693 30.9406C36.3052 30.854 36.3578 30.7753 36.4241 30.7091C36.4903 30.6428 36.569 30.5902 36.6556 30.5543C36.7422 30.5185 36.835 30.5 36.9288 30.5ZM35.5 27.6425H39.7863C39.9755 27.6425 40.1571 27.7177 40.2909 27.8516C40.4248 27.9854 40.5 28.167 40.5 28.3563C40.5 28.5455 40.4248 28.7271 40.2909 28.861C40.1571 28.9948 39.9755 29.07 39.7863 29.07H35.5C35.3107 29.07 35.1292 28.9948 34.9953 28.861C34.8615 28.7271 34.7863 28.5455 34.7863 28.3563C34.7863 28.167 34.8615 27.9854 34.9953 27.8516C35.1292 27.7177 35.3107 27.6425 35.5 27.6425ZM35.5 13.3575H39.7863C39.9755 13.3575 40.1571 13.4327 40.2909 13.5666C40.4248 13.7004 40.5 13.882 40.5 14.0713C40.5 14.2605 40.4248 14.4421 40.2909 14.5759C40.1571 14.7098 39.9755 14.785 39.7863 14.785H35.5C35.3107 14.785 35.1292 14.7098 34.9953 14.5759C34.8615 14.4421 34.7863 14.2605 34.7863 14.0713C34.7863 13.882 34.8615 13.7004 34.9953 13.5666C35.1292 13.4327 35.3107 13.3575 35.5 13.3575ZM36.9288 24.7863H39.7863C39.9755 24.7863 40.1571 24.8614 40.2909 24.9953C40.4248 25.1292 40.5 25.3107 40.5 25.5C40.5 25.6893 40.4248 25.8708 40.2909 26.0047C40.1571 26.1386 39.9755 26.2137 39.7863 26.2137H36.9288C36.8349 26.2139 36.742 26.1956 36.6552 26.1598C36.5685 26.124 36.4897 26.0714 36.4232 26.0051C36.3568 25.9388 36.3041 25.8601 36.2682 25.7734C36.2323 25.6868 36.2137 25.5938 36.2137 25.5C36.2137 25.4062 36.2323 25.3132 36.2682 25.2266C36.3041 25.1399 36.3568 25.0612 36.4232 24.9949C36.4897 24.9286 36.5685 24.876 36.6552 24.8402C36.742 24.8044 36.8349 24.7861 36.9288 24.7863ZM36.9288 16.2138H39.7863C39.8801 16.2138 39.973 16.2323 40.0597 16.2682C40.1464 16.3041 40.2251 16.3568 40.2914 16.4232C40.3577 16.4897 40.4102 16.5685 40.446 16.6552C40.4818 16.742 40.5002 16.8349 40.5 16.9288C40.5 17.118 40.4248 17.2996 40.2909 17.4334C40.1571 17.5673 39.9755 17.6425 39.7863 17.6425H36.9288C36.835 17.6425 36.7422 17.624 36.6556 17.5882C36.569 17.5523 36.4903 17.4997 36.4241 17.4334C36.3578 17.3672 36.3052 17.2885 36.2693 17.2019C36.2335 17.1153 36.215 17.0225 36.215 16.9288C36.2148 16.8349 36.2332 16.742 36.269 16.6552C36.3048 16.5685 36.3573 16.4897 36.4236 16.4232C36.4899 16.3568 36.5686 16.3041 36.6553 16.2682C36.742 16.2323 36.8349 16.2138 36.9288 16.2138ZM38.3575 19.0713H39.7863C39.9755 19.0713 40.1571 19.1465 40.2909 19.2803C40.4248 19.4142 40.5 19.5957 40.5 19.785C40.5 19.9743 40.4248 20.1558 40.2909 20.2897C40.1571 20.4236 39.9755 20.4988 39.7863 20.4988H38.3575C38.1682 20.4988 37.9867 20.4236 37.8528 20.2897C37.719 20.1558 37.6438 19.9743 37.6438 19.785C37.6438 19.5957 37.719 19.4142 37.8528 19.2803C37.9867 19.1465 38.1682 19.0713 38.3575 19.0713ZM38.3575 21.9288H39.7863C39.9755 21.9288 40.1571 22.0039 40.2909 22.1378C40.4248 22.2717 40.5 22.4532 40.5 22.6425C40.5 22.8318 40.4248 23.0133 40.2909 23.1472C40.1571 23.2811 39.9755 23.3563 39.7863 23.3563H38.3575C38.1682 23.3563 37.9867 23.2811 37.8528 23.1472C37.719 23.0133 37.6438 22.8318 37.6438 22.6425C37.6438 22.4532 37.719 22.2717 37.8528 22.1378C37.9867 22.0039 38.1682 21.9288 38.3575 21.9288ZM26.9288 33.3575H39.7863C39.88 33.3575 39.9728 33.376 40.0594 33.4118C40.146 33.4477 40.2247 33.5003 40.2909 33.5666C40.3572 33.6328 40.4098 33.7115 40.4457 33.7981C40.4815 33.8847 40.5 33.9775 40.5 34.0713C40.5 34.165 40.4815 34.2578 40.4457 34.3444C40.4098 34.431 40.3572 34.5097 40.2909 34.5759C40.2247 34.6422 40.146 34.6948 40.0594 34.7307C39.9728 34.7665 39.88 34.785 39.7863 34.785H26.9288C26.7395 34.785 26.5579 34.7098 26.4241 34.5759C26.2902 34.4421 26.215 34.2605 26.215 34.0713C26.215 33.882 26.2902 33.7004 26.4241 33.5666C26.5579 33.4327 26.7395 33.3575 26.9288 33.3575ZM21.2138 33.3575H24.0713C24.2605 33.3575 24.4421 33.4327 24.5759 33.5666C24.7098 33.7004 24.785 33.882 24.785 34.0713C24.785 34.2605 24.7098 34.4421 24.5759 34.5759C24.4421 34.7098 24.2605 34.785 24.0713 34.785H21.2138C21.0245 34.785 20.8429 34.7098 20.7091 34.5759C20.5752 34.4421 20.5 34.2605 20.5 34.0713C20.5 33.882 20.5752 33.7004 20.7091 33.5666C20.8429 33.4327 21.0245 33.3575 21.2138 33.3575ZM32.6425 39.0713H39.785C39.9743 39.0713 40.1558 39.1464 40.2897 39.2803C40.4236 39.4142 40.4988 39.5957 40.4988 39.785C40.4988 39.8787 40.4803 39.9715 40.4444 40.0581C40.4086 40.1447 40.356 40.2234 40.2897 40.2897C40.2234 40.356 40.1447 40.4086 40.0581 40.4444C39.9715 40.4803 39.8787 40.4988 39.785 40.4988H32.6425C32.5488 40.4988 32.456 40.4803 32.3694 40.4444C32.2828 40.4086 32.2041 40.356 32.1378 40.2897C32.0715 40.2234 32.019 40.1447 31.9831 40.0581C31.9472 39.9715 31.9288 39.8787 31.9288 39.785C31.9288 39.5957 32.0039 39.4142 32.1378 39.2803C32.2717 39.1464 32.4532 39.0713 32.6425 39.0713ZM21.2138 39.0713H29.785C29.9743 39.0713 30.1558 39.1464 30.2897 39.2803C30.4236 39.4142 30.4988 39.5957 30.4988 39.785C30.4988 39.8787 30.4803 39.9715 30.4444 40.0581C30.4086 40.1447 30.356 40.2234 30.2897 40.2897C30.2234 40.356 30.1447 40.4086 30.0581 40.4444C29.9715 40.4803 29.8787 40.4988 29.785 40.4988H21.2138C21.0247 40.4988 20.8433 40.4237 20.7095 40.2901C20.5757 40.1566 20.5003 39.9753 20.5 39.7863C20.4998 39.6924 20.5182 39.5995 20.554 39.5127C20.5898 39.426 20.6423 39.3472 20.7086 39.2807C20.7749 39.2143 20.8536 39.1616 20.9403 39.1257C21.027 39.0898 21.1199 39.0713 21.2138 39.0713ZM21.2138 19.0713H25.5C25.6893 19.0713 25.8708 19.1465 26.0047 19.2803C26.1386 19.4142 26.2138 19.5957 26.2137 19.785C26.2139 19.8788 26.1956 19.9718 26.1598 20.0585C26.124 20.1453 26.0714 20.2241 26.0051 20.2905C25.9388 20.3569 25.8601 20.4096 25.7734 20.4456C25.6868 20.4815 25.5938 20.5 25.5 20.5H21.2138C21.0245 20.5 20.8429 20.4248 20.7091 20.2909C20.5752 20.1571 20.5 19.9755 20.5 19.7863C20.4998 19.6924 20.5182 19.5995 20.554 19.5127C20.5898 19.426 20.6423 19.3472 20.7086 19.2807C20.7749 19.2143 20.8536 19.1616 20.9403 19.1257C21.027 19.0898 21.1199 19.0713 21.2138 19.0713ZM21.2138 21.9288H25.5C25.6893 21.9288 25.8708 22.0039 26.0047 22.1378C26.1386 22.2717 26.2138 22.4532 26.2137 22.6425C26.2138 22.8318 26.1386 23.0133 26.0047 23.1472C25.8708 23.2811 25.6893 23.3563 25.5 23.3563H21.2138C21.0245 23.3563 20.8429 23.2811 20.7091 23.1472C20.5752 23.0133 20.5 22.8318 20.5 22.6425C20.5 22.4532 20.5752 22.2717 20.7091 22.1378C20.8429 22.0039 21.0245 21.9288 21.2138 21.9288Z" fill="#D0D4D8"/>
</svg>
