<svg width="51" height="51" viewBox="0 0 51 51" fill="none" xmlns="http://www.w3.org/2000/svg">
<g id="skill-icons:react-dark" clip-path="url(#clip0_50_87)">
<g id="Group">
<path id="Vector" d="M38.7812 0.75H12.2188C5.74666 0.75 0.5 5.99666 0.5 12.4688V39.0312C0.5 45.5033 5.74666 50.75 12.2188 50.75H38.7812C45.2533 50.75 50.5 45.5033 50.5 39.0312V12.4688C50.5 5.99666 45.2533 0.75 38.7812 0.75Z" fill="#242938"/>
<path id="Vector_2" d="M25.5002 29.4514C27.5127 29.4514 29.1439 27.8199 29.1439 25.8076C29.1439 23.7953 27.5127 22.1639 25.5002 22.1639C23.4879 22.1639 21.8564 23.7953 21.8564 25.8076C21.8564 27.8199 23.4879 29.4514 25.5002 29.4514Z" fill="#00D8FF"/>
<path id="Vector_3" d="M25.5004 18.399C30.3926 18.399 34.9373 19.101 38.3641 20.2809C42.4928 21.7021 45.0312 23.8566 45.0312 25.8076C45.0312 27.8406 42.341 30.1295 37.9072 31.5984C34.5553 32.709 30.1443 33.2887 25.5004 33.2887C20.7391 33.2887 16.2303 32.7445 12.8404 31.5861C8.55176 30.1203 5.96875 27.8019 5.96875 25.8076C5.96875 23.8725 8.39258 21.7346 12.4633 20.3154C15.9027 19.1162 20.5596 18.399 25.4996 18.399H25.5004Z" stroke="#00D8FF" stroke-width="2.91"/>
<path id="Vector_4" d="M19.0509 22.1246C21.495 17.8867 24.3734 14.3004 27.1073 11.9215C30.4011 9.05488 33.5359 7.93222 35.2257 8.90664C36.9868 9.92226 37.6257 13.3965 36.6833 17.9711C35.9714 21.4295 34.2694 25.54 31.9493 29.5631C29.5706 33.6877 26.847 37.3217 24.1503 39.6787C20.738 42.6615 17.439 43.741 15.7114 42.7447C14.0351 41.7787 13.3941 38.6105 14.1984 34.3752C14.8778 30.7965 16.5831 26.4041 19.0501 22.1246H19.0509Z" stroke="#00D8FF" stroke-width="2.91"/>
<path id="Vector_5" d="M19.057 29.5738C16.6061 25.3406 14.9373 21.0551 14.2408 17.4984C13.4024 13.2131 13.9951 9.93671 15.6836 8.95936C17.4432 7.94061 20.7719 9.12226 24.2645 12.2234C26.9051 14.568 29.6166 18.0947 31.9434 22.1139C34.3289 26.2346 36.1168 30.4094 36.8123 33.9226C37.6924 38.3687 36.9801 41.7658 35.2541 42.7648C33.5795 43.7344 30.5149 42.708 27.2471 39.8959C24.4861 37.5201 21.5322 33.8492 19.057 29.5738Z" stroke="#00D8FF" stroke-width="2.91"/>
</g>
</g>
<defs>
<clipPath id="clip0_50_87">
<rect width="50" height="50" fill="white" transform="translate(0.5 0.75)"/>
</clipPath>
</defs>
</svg>
