<svg width="24" height="24" viewBox="0 0 24 24" fill="none" xmlns="http://www.w3.org/2000/svg">
<g id="pepicons-pop:cv">
<g id="Group">
<path id="Vector" d="M9.36001 7.62004C10.032 7.62004 10.572 7.08005 10.572 6.40805C10.572 5.73605 10.032 5.19604 9.36001 5.19604C8.68801 5.19604 8.14801 5.73605 8.14801 6.40805C8.14801 7.08005 8.68801 7.62004 9.36001 7.62004Z" fill="white"/>
<path id="Vector_2" fill-rule="evenodd" clip-rule="evenodd" d="M11.796 10.2601C11.796 8.96408 10.704 8.02808 9.36002 8.02808C8.01602 8.02808 6.92402 8.96408 6.92402 10.2601V10.8721C6.92402 10.9801 6.97202 11.0881 7.04402 11.1601C7.11602 11.2321 7.22402 11.2801 7.33202 11.2801H11.388C11.496 11.2801 11.604 11.2321 11.676 11.1601C11.748 11.0881 11.796 10.9801 11.796 10.8721V10.2601ZM6.90002 13.8001C6.90002 13.5614 6.99485 13.3325 7.16363 13.1637C7.33241 12.9949 7.56133 12.9001 7.80002 12.9001H16.2C16.4387 12.9001 16.6676 12.9949 16.8364 13.1637C17.0052 13.3325 17.1 13.5614 17.1 13.8001C17.1 14.0388 17.0052 14.2677 16.8364 14.4365C16.6676 14.6053 16.4387 14.7001 16.2 14.7001H7.80002C7.56133 14.7001 7.33241 14.6053 7.16363 14.4365C6.99485 14.2677 6.90002 14.0388 6.90002 13.8001ZM6.90002 17.4001C6.90002 17.1614 6.99485 16.9325 7.16363 16.7637C7.33241 16.5949 7.56133 16.5001 7.80002 16.5001H16.2C16.4387 16.5001 16.6676 16.5949 16.8364 16.7637C17.0052 16.9325 17.1 17.1614 17.1 17.4001C17.1 17.6388 17.0052 17.8677 16.8364 18.0365C16.6676 18.2053 16.4387 18.3001 16.2 18.3001H7.80002C7.56133 18.3001 7.33241 18.2053 7.16363 18.0365C6.99485 17.8677 6.90002 17.6388 6.90002 17.4001Z" fill="white"/>
<path id="Vector_3" fill-rule="evenodd" clip-rule="evenodd" d="M3 3.0001C3 1.6777 4.0776 0.600098 5.4 0.600098H13.428C14.1024 0.600098 14.7384 0.885698 15.186 1.3573L15.1932 1.3657L20.3676 7.0081C20.7984 7.4677 21 8.0689 21 8.6401V21.0001C21 22.3225 19.9224 23.4001 18.6 23.4001H5.4C4.0776 23.4001 3 22.3225 3 21.0001V3.0001ZM13.4268 3.0001H5.4V21.0001H18.6V8.6305L13.4448 3.0085L13.4412 3.0073C13.4368 3.00412 13.432 3.00169 13.4268 3.0001Z" fill="white"/>
<path id="Vector_4" fill-rule="evenodd" clip-rule="evenodd" d="M13.428 0.600098C13.7463 0.600098 14.0515 0.726526 14.2766 0.95157C14.5016 1.17661 14.628 1.48184 14.628 1.8001V7.4401H19.8C19.9576 7.4401 20.1137 7.47114 20.2592 7.53144C20.4048 7.59175 20.5371 7.68014 20.6486 7.79157C20.76 7.903 20.8484 8.03529 20.9087 8.18088C20.969 8.32647 21 8.48251 21 8.6401C21 8.79768 20.969 8.95373 20.9087 9.09932C20.8484 9.24491 20.76 9.3772 20.6486 9.48863C20.5371 9.60006 20.4048 9.68845 20.2592 9.74875C20.1137 9.80906 19.9576 9.8401 19.8 9.8401H13.428C13.1098 9.8401 12.8045 9.71367 12.5795 9.48863C12.3545 9.26358 12.228 8.95836 12.228 8.6401V1.8001C12.228 1.48184 12.3545 1.17661 12.5795 0.95157C12.8045 0.726526 13.1098 0.600098 13.428 0.600098Z" fill="white"/>
</g>
</g>
</svg>
