<svg width="51" height="51" viewBox="0 0 51 51" fill="none" xmlns="http://www.w3.org/2000/svg">
<g id="skill-icons:sass" clip-path="url(#clip0_50_79)">
<g id="Group">
<path id="Vector" d="M38.7812 0.75H12.2188C5.74666 0.75 0.5 5.99666 0.5 12.4688V39.0312C0.5 45.5033 5.74666 50.75 12.2188 50.75H38.7812C45.2533 50.75 50.5 45.5033 50.5 39.0312V12.4688C50.5 5.99666 45.2533 0.75 38.7812 0.75Z" fill="#CD6799"/>
<g id="Clip path group">
<mask id="mask0_50_79" style="mask-type:luminance" maskUnits="userSpaceOnUse" x="5" y="11" width="41" height="30">
<g id="skillIconsSass0">
<path id="Vector_2" d="M5.96875 11.1016H45.0312V40.3807H5.96875V11.1016Z" fill="white"/>
</g>
</mask>
<g mask="url(#mask0_50_79)">
<g id="Group_2">
<path id="Vector_3" d="M39.5834 27.9303C38.2213 27.9373 37.0377 28.2654 36.0465 28.7502C35.6828 28.0301 35.3191 27.3883 35.2549 26.9176C35.1836 26.3685 35.098 26.0334 35.1836 25.3773C35.2691 24.7213 35.6543 23.7873 35.647 23.716C35.64 23.6445 35.5615 23.3096 34.7771 23.3023C33.9927 23.2953 33.3154 23.4521 33.2369 23.659C33.1584 23.8656 33.0088 24.3363 32.909 24.8213C32.7734 25.5344 31.34 28.0801 30.5201 29.4135C30.2562 28.893 30.0281 28.4365 29.9781 28.0728C29.9068 27.5238 29.8213 27.1887 29.9068 26.5326C29.9924 25.8766 30.3775 24.9424 30.3703 24.8711C30.3633 24.7998 30.2847 24.4646 29.5004 24.4576C28.716 24.4504 28.0384 24.6072 27.9601 24.8141C27.8816 25.0209 27.7961 25.5059 27.632 25.9764C27.4681 26.4471 25.5642 30.6971 25.065 31.7951C24.8633 32.2395 24.6517 32.6793 24.4304 33.1143C24.4304 33.1143 24.4232 33.1357 24.4019 33.1713C24.3323 33.3077 24.261 33.4432 24.1879 33.5777V33.585C24.081 33.7775 23.9668 33.9557 23.9097 33.9557C23.867 33.9557 23.7886 33.4424 23.924 32.7435C24.2093 31.2674 24.8867 28.9713 24.8797 28.893C24.8797 28.8502 25.008 28.4508 24.4375 28.2439C23.8812 28.0371 23.6816 28.3795 23.6316 28.3795C23.5818 28.3795 23.5461 28.5008 23.5461 28.5008C23.5461 28.5008 24.1666 25.9193 22.3625 25.9193C21.2357 25.9193 19.6812 27.1529 18.9113 28.2654C18.0358 28.7418 17.161 29.2196 16.2869 29.6986C15.8664 29.934 15.4314 30.1693 15.0248 30.3904C14.9963 30.3619 14.9677 30.3262 14.9392 30.2976C12.7572 27.9658 8.72126 26.3187 8.89235 23.1883C8.95661 22.0473 9.3488 19.0523 16.6435 15.4156C22.6476 12.4564 27.4254 13.2764 28.2525 15.0947C29.4361 17.6904 25.6925 22.5107 19.4888 23.2096C17.1213 23.4734 15.8806 22.5607 15.567 22.2185C15.2388 21.8619 15.1888 21.8406 15.0675 21.9119C14.8679 22.0187 14.9963 22.3396 15.0675 22.525C15.2531 23.01 16.016 23.8656 17.3066 24.2863C18.4476 24.6572 21.2215 24.8641 24.58 23.5662C28.3381 22.1115 31.2759 18.0682 30.4131 14.6812C29.5504 11.2441 23.8457 10.1103 18.4476 12.0285C15.2386 13.1695 11.759 14.9664 9.25603 17.3053C6.28239 20.0865 5.81188 22.5037 6.00446 23.5162C6.69606 27.1102 11.6519 29.449 13.6343 31.1818C13.5345 31.2389 13.4418 31.2889 13.3634 31.3316C12.3722 31.8236 8.59294 33.7988 7.65153 35.8883C6.582 38.2557 7.82282 39.9527 8.64274 40.1809C11.1884 40.8869 13.8054 39.6176 15.2103 37.5211C16.615 35.4246 16.4439 32.7008 15.7949 31.4529C15.7879 31.4371 15.7783 31.4226 15.7664 31.4101C16.0232 31.2603 16.2869 31.1035 16.5437 30.9537C17.0156 30.6748 17.4935 30.4062 17.9769 30.1478C17.7345 30.8111 17.5562 31.6025 17.4707 32.7435C17.3638 34.0842 17.9129 35.824 18.633 36.5086C18.9539 36.808 19.3318 36.8152 19.5744 36.8152C20.4158 36.8152 20.7937 36.1164 21.2144 35.2893C21.7277 34.2766 22.1914 33.1 22.1914 33.1C22.1914 33.1 21.6136 36.2805 23.1824 36.2805C23.7529 36.2805 24.3304 35.5389 24.5873 35.1609V35.168C24.5873 35.168 24.6015 35.1467 24.63 35.0967C24.6871 35.0039 24.7226 34.9469 24.7226 34.9469V34.9326C24.9509 34.5334 25.4642 33.6277 26.2273 32.123C27.2113 30.1836 28.1597 27.7592 28.1597 27.7592C28.1597 27.7592 28.2453 28.351 28.5377 29.335C28.7088 29.9127 29.0654 30.5473 29.3506 31.1605C29.1224 31.4814 28.9799 31.6596 28.9799 31.6596L28.9869 31.6668C28.8015 31.9092 28.6019 32.173 28.3808 32.4297C27.6035 33.3568 26.6765 34.4193 26.5482 34.726C26.3984 35.0896 26.4341 35.3533 26.7193 35.5674C26.9261 35.7242 27.2968 35.7455 27.6748 35.7242C28.3736 35.6742 28.8658 35.5031 29.1082 35.3961C29.4861 35.2607 29.9283 35.0539 30.3418 34.7473C31.1049 34.184 31.5683 33.3781 31.5256 32.3156C31.5041 31.7309 31.3115 31.1463 31.0763 30.5971C31.1476 30.4973 31.2117 30.3975 31.283 30.2976C32.4883 28.5363 33.4222 26.6039 33.4222 26.6039C33.4222 26.6039 33.5078 27.1957 33.8002 28.1799C33.9427 28.6789 34.2351 29.2209 34.492 29.7486C33.3582 30.6686 32.6593 31.7381 32.4097 32.4369C31.9605 33.7348 32.3099 34.3193 32.973 34.4549C33.2726 34.5191 33.7004 34.3766 34.0142 34.241C34.4134 34.1127 34.8842 33.8916 35.3334 33.5635C36.0963 33.0002 36.8308 32.2158 36.7881 31.1533C36.7666 30.6685 36.6383 30.1906 36.4599 29.7271C37.4226 29.3279 38.6634 29.1068 40.2465 29.2922C43.6408 29.6916 44.3111 31.8094 44.1826 32.7008C44.0543 33.592 43.3412 34.0769 43.1058 34.2268C42.8707 34.3766 42.7922 34.4264 42.8136 34.5334C42.8422 34.6902 42.9562 34.683 43.1558 34.6545C43.434 34.6047 44.9384 33.9344 45.0027 32.2943C45.1097 30.1978 43.1131 27.9088 39.5834 27.9303ZM13.399 36.7582C12.2724 37.9846 10.7037 38.4482 10.0261 38.056C9.2988 37.6352 9.58396 35.824 10.9675 34.5262C11.8088 33.7348 12.8927 33.0002 13.6129 32.551C13.7769 32.4512 14.0193 32.3086 14.3117 32.1303C14.3617 32.1018 14.3902 32.0875 14.3902 32.0875L14.5613 31.9805C15.0675 33.8346 14.5826 35.4676 13.399 36.7582ZM21.5994 31.1818C21.2072 32.1375 20.3873 34.5832 19.8881 34.4478C19.4603 34.3336 19.1965 32.4797 19.8025 30.6471C20.1092 29.7271 20.758 28.6291 21.1359 28.2012C21.7492 27.5166 22.4265 27.2885 22.5906 27.5666C22.7974 27.9303 21.842 30.5828 21.5994 31.1818ZM28.3666 34.4193C28.2025 34.5049 28.0457 34.5619 27.9744 34.5191C27.9244 34.4906 28.0457 34.3766 28.0457 34.3766C28.0457 34.3766 28.8943 33.4637 29.2295 33.0502C29.4218 32.8076 29.6502 32.5225 29.8925 32.2016V32.2943C29.8925 33.3853 28.8373 34.1197 28.3666 34.4193ZM33.5863 33.2283C33.465 33.1428 33.4865 32.8576 33.8929 31.9662C34.0498 31.6168 34.4207 31.0322 35.0552 30.4687C35.1265 30.6971 35.1765 30.918 35.1693 31.1248C35.1623 32.5012 34.1781 33.0144 33.5863 33.2283Z" fill="white"/>
</g>
</g>
</g>
</g>
</g>
<defs>
<clipPath id="clip0_50_79">
<rect width="50" height="50" fill="white" transform="translate(0.5 0.75)"/>
</clipPath>
</defs>
</svg>
