<svg width="51" height="51" viewBox="0 0 51 51" fill="none" xmlns="http://www.w3.org/2000/svg">
<g id="skill-icons:tailwindcss-dark" clip-path="url(#clip0_50_94)">
<g id="Group">
<path id="Vector" d="M38.7812 0.75H12.2188C5.74666 0.75 0.5 5.99666 0.5 12.4688V39.0312C0.5 45.5033 5.74666 50.75 12.2188 50.75H38.7812C45.2533 50.75 50.5 45.5033 50.5 39.0312V12.4688C50.5 5.99666 45.2533 0.75 38.7812 0.75Z" fill="#242938"/>
<path id="Vector_2" fill-rule="evenodd" clip-rule="evenodd" d="M16.7109 22.2344C17.8828 17.5469 20.8127 15.2031 25.5 15.2031C32.5312 15.2031 33.4102 20.4766 36.9258 21.3555C39.2697 21.9416 41.3203 21.0627 43.0781 18.7188C41.9064 23.4061 38.9764 25.75 34.2891 25.75C27.2578 25.75 26.3789 20.4766 22.8633 19.5977C20.5193 19.0117 18.4688 19.8906 16.7109 22.2344ZM7.92188 32.7812C9.09375 28.0939 12.0234 25.75 16.7109 25.75C23.7422 25.75 24.6211 31.0234 28.1367 31.9023C30.4807 32.4885 32.5312 31.6096 34.2891 29.2656C33.1174 33.9529 30.1873 36.2969 25.5 36.2969C18.4688 36.2969 17.5898 31.0234 14.0742 30.1445C11.7305 29.5584 9.67969 30.4373 7.92188 32.7812Z" fill="url(#paint0_linear_50_94)"/>
</g>
</g>
<defs>
<linearGradient id="paint0_linear_50_94" x1="17.3945" y1="15.2031" x2="32.4336" y2="36.9805" gradientUnits="userSpaceOnUse">
<stop stop-color="#32B1C1"/>
<stop offset="1" stop-color="#14C6B7"/>
</linearGradient>
<clipPath id="clip0_50_94">
<rect width="50" height="50" fill="white" transform="translate(0.5 0.75)"/>
</clipPath>
</defs>
</svg>
