<svg width="51" height="51" viewBox="0 0 51 51" fill="none" xmlns="http://www.w3.org/2000/svg">
<path d="M38.7812 0.5H12.2188C5.74666 0.5 0.5 5.74666 0.5 12.2188V38.7812C0.5 45.2533 5.74666 50.5 12.2188 50.5H38.7812C45.2533 50.5 50.5 45.2533 50.5 38.7812V12.2188C50.5 5.74666 45.2533 0.5 38.7812 0.5Z" fill="#242526"/>
<g clip-path="url(#clip0_270_2)">
<path d="M44.5329 21.7219C45.5168 25.5542 41.29 30.0422 36.0036 28.7706C42.7369 23.8734 39.6585 17.6005 36.0999 14.5912C32.2413 11.3275 35.9768 10.2819 37.2213 11.4634C37.1913 9.07953 28.7979 9.61828 36.1394 17.2734C39.9113 21.2053 35.4618 29.9031 30.1611 23.2891C30.1174 23.2291 30.0777 23.1663 30.0427 23.1011C30.8986 22.7456 31.6016 21.7787 31.6016 20.1864C31.61 19.6227 31.4979 19.0637 31.273 18.5467C31.8858 17.2987 32.4482 15.8077 32.4482 13.9405C32.4482 9.4775 29.5529 5.5 25.4985 5.5C21.4438 5.5 18.5488 9.47766 18.5488 13.9403C18.5488 15.8075 19.1127 17.3003 19.7254 18.5483C19.4996 19.0661 19.3876 19.6264 19.3969 20.1912C19.3969 21.7834 20.0982 22.7503 20.9558 23.1058C20.9202 23.1711 20.88 23.2339 20.8358 23.2937C15.535 29.9078 11.0843 21.2086 14.8575 17.2781C22.2005 9.62297 13.8039 9.08594 13.7739 11.4681C15.0186 10.2881 18.7557 11.3338 14.8954 14.5959C11.3369 17.5973 8.26161 23.8719 14.9918 28.7753C9.70676 30.047 5.48176 25.5591 6.46254 21.7267C4.74723 24.8861 6.01879 30.8605 12.8279 32.0138C5.57958 33.6772 7.76083 43.6861 12.8643 42.0842C8.48739 41.8267 8.97395 36.7891 10.7446 35.2727C12.7032 33.5934 15.1797 34.7766 19.6955 34.0198C19.6464 38.0861 23.6063 40.2708 21.5293 42.5992C19.3289 45.0636 16.3169 42.4019 16.7813 39.9802C14.6807 44.3275 20.6621 47.787 23.2841 42.7383C25.3043 38.8539 19.9357 31.8383 25.4954 31.8383C31.055 31.8383 25.6849 38.8459 27.7066 42.7383C30.3285 47.7933 36.31 44.3273 34.2093 39.9802C34.6689 42.4034 31.6616 45.0636 29.463 42.5992C27.3954 40.2645 31.3443 38.0797 31.3014 34.0136C35.8155 34.7703 38.2922 33.5855 40.2493 35.2663C42.023 36.7828 42.5079 41.8205 38.1311 42.078C43.2424 43.6861 45.4221 33.6755 38.1707 32.0073C44.975 30.8558 46.2482 24.8797 44.5329 21.7219Z" fill="url(#paint0_radial_270_2)"/>
<path d="M10.8282 35.5759C12.7852 33.8967 15.0328 35.3657 19.7 34.0136C19.7 34.0136 19.7649 32.7656 19.825 31.84C18.4035 32.9109 15.8036 32.7718 13.6335 33.0895C6.49097 34.1368 8.07675 42.7161 12.8643 42.0842C9.32144 41.5029 9.05613 37.094 10.8283 35.5759" fill="url(#paint1_linear_270_2)"/>
<path d="M20.0997 29.4276C20.8895 28.2065 20.9875 26.2382 19.3906 28.0281C13.995 34.0735 4.63341 29.1339 6.46716 21.7234C4.49294 24.4042 5.4406 31.4134 12.8325 32.0089C14.6884 31.3928 18.5092 31.8698 20.0997 29.4276Z" fill="url(#paint2_linear_270_2)"/>
<path d="M14.9933 28.7707C14.9933 28.7707 16.8886 28.5763 18.1175 27.1324C13.1215 28.9902 9.02279 20.9321 15.2743 15.4854C20.1361 11.2547 15.1875 9.58677 13.7692 11.4635C14.292 10.9469 18.5281 11.2391 14.6679 14.5027C11.1156 17.5121 7.35169 23.7597 14.9933 28.7707Z" fill="url(#paint3_radial_270_2)"/>
<path d="M29.0918 43.4143C27.0116 41.0859 29.0918 38.9832 29.474 35.3137C29.7268 32.8382 28.8027 30.1006 25.5 30.1006C22.1974 30.1006 21.2719 32.8429 21.5261 35.3137C21.9036 38.9832 23.9869 41.0859 21.9083 43.4143C19.7097 45.8771 15.5983 43.3101 16.786 39.9737C13.8625 44.8282 21.2829 47.8503 23.9047 42.8029C25.9235 38.917 19.9402 32.1068 25.5 32.1068C31.0599 32.1068 25.0766 38.917 27.0954 42.8029C29.7172 47.8501 37.136 44.8282 34.2125 39.9737C35.3986 43.3101 31.2904 45.8756 29.0918 43.4143Z" fill="url(#paint4_radial_270_2)"/>
<path d="M37.3666 33.0911C35.1949 32.7751 32.5935 32.9109 31.175 31.84C31.2368 32.7656 31.3 34.0151 31.3 34.0151C35.9657 35.3657 38.2133 33.8951 40.1704 35.5759C41.9424 37.0925 41.6771 41.5029 38.128 42.0779C42.9218 42.7161 44.5091 34.1368 37.3666 33.0911Z" fill="url(#paint5_linear_270_2)"/>
<path d="M44.5328 21.7219C46.3666 29.1308 37.005 34.0736 31.6078 28.025C30.011 26.2352 30.1042 28.205 30.9003 29.4261C32.4908 31.8683 36.31 31.3913 38.166 32.0074C45.5594 31.4135 46.5071 24.4027 44.5328 21.7219Z" fill="url(#paint6_linear_270_2)"/>
<path d="M32.8824 27.1324C34.1114 28.5763 36.0051 28.7707 36.0051 28.7707C43.6467 23.766 39.8828 17.5105 36.321 14.5027C32.4592 11.2391 36.6953 10.9469 37.2181 11.4635C35.7965 9.58675 30.8512 11.2549 35.7129 15.4853C41.9754 20.9322 37.8768 28.99 32.8824 27.1324Z" fill="url(#paint7_radial_270_2)"/>
<path opacity="0.3" d="M27.5533 11.0527C27.5533 12.2849 25.5 12.2849 25.5 11.0527C25.5 9.82052 27.5533 9.82208 27.5533 11.0527ZM24.3202 12.1807C24.3202 13.029 22.9097 13.029 22.9097 12.1807C22.9097 11.3322 24.3202 11.3322 24.3202 12.1807ZM25.2205 8.2788C25.2205 9.12865 23.8084 9.12865 23.8084 8.2788C23.8084 7.4288 25.2205 7.43677 25.2205 8.2788ZM22.2794 14.2991C22.2794 14.724 21.5734 14.724 21.5734 14.2991C21.5734 13.8741 22.2794 13.8741 22.2794 14.2991ZM22.4138 10.1286C22.4138 10.7161 21.4375 10.7161 21.4375 10.1286C21.4375 9.54099 22.4138 9.54255 22.4138 10.1286ZM25.2205 15.2958C25.2205 15.8849 24.2444 15.8849 24.2444 15.2958C24.2444 14.7066 25.2205 14.7113 25.2205 15.2958Z" fill="#350000"/>
<path d="M22.9917 20.1863C22.9917 22.4265 20.452 22.4265 20.452 20.1863C20.452 17.9463 22.9917 17.9463 22.9917 20.1863Z" fill="#302D3B"/>
<path d="M21.6903 19.6162C21.6952 19.6704 21.6887 19.725 21.6713 19.7765C21.6539 19.8281 21.6259 19.8754 21.5892 19.9155C21.5525 19.9557 21.5079 19.9877 21.4581 20.0097C21.4083 20.0316 21.3546 20.0429 21.3002 20.0429C21.2458 20.0429 21.192 20.0316 21.1422 20.0097C21.0924 19.9877 21.0478 19.9557 21.0111 19.9155C20.9744 19.8754 20.9464 19.8281 20.929 19.7765C20.9116 19.725 20.9052 19.6704 20.91 19.6162C20.9052 19.5621 20.9116 19.5075 20.929 19.456C20.9464 19.4044 20.9744 19.3571 21.0111 19.317C21.0478 19.2768 21.0924 19.2448 21.1422 19.2228C21.192 19.2009 21.2458 19.1896 21.3002 19.1896C21.3546 19.1896 21.4083 19.2009 21.4581 19.2228C21.5079 19.2448 21.5525 19.2768 21.5892 19.317C21.6259 19.3571 21.6539 19.4044 21.6713 19.456C21.6887 19.5075 21.6952 19.5621 21.6903 19.6162Z" fill="#6F828A"/>
<path d="M30.5544 20.1863C30.5544 22.4265 28.0145 22.4265 28.0145 20.1863C28.0145 17.9463 30.5544 17.9463 30.5544 20.1863Z" fill="#302D3B"/>
<path d="M29.245 19.6162C29.2499 19.6704 29.2434 19.725 29.226 19.7765C29.2086 19.8281 29.1806 19.8754 29.1439 19.9155C29.1072 19.9557 29.0626 19.9877 29.0128 20.0097C28.963 20.0316 28.9092 20.0429 28.8549 20.0429C28.8005 20.0429 28.7467 20.0316 28.6969 20.0097C28.6471 19.9877 28.6025 19.9557 28.5658 19.9155C28.5291 19.8754 28.5011 19.8281 28.4837 19.7765C28.4663 19.725 28.4598 19.6704 28.4647 19.6162C28.4598 19.5621 28.4663 19.5075 28.4837 19.456C28.5011 19.4044 28.5291 19.3571 28.5658 19.317C28.6025 19.2768 28.6471 19.2448 28.6969 19.2228C28.7467 19.2009 28.8005 19.1896 28.8549 19.1896C28.9092 19.1896 28.963 19.2009 29.0128 19.2228C29.0626 19.2448 29.1072 19.2768 29.1439 19.317C29.1806 19.3571 29.2086 19.4044 29.226 19.456C29.2434 19.5075 29.2499 19.5621 29.245 19.6162Z" fill="#6F828A"/>
<path d="M24.3201 24.6444C24.3201 25.9208 24.2143 26.9539 24.0926 26.9539C23.9711 26.9539 23.8731 25.9208 23.8747 24.6461C23.8762 23.3711 23.9804 22.3364 24.1037 22.3364C24.2268 22.3364 24.3232 23.368 24.3201 24.6444Z" fill="#7F0100"/>
<path d="M25.541 27.3551C25.6335 27.3551 25.7085 26.1407 25.7085 24.6428C25.7085 23.1448 25.6335 21.9304 25.541 21.9304C25.4485 21.9304 25.3735 23.1448 25.3735 24.6428C25.3735 26.1407 25.4485 27.3551 25.541 27.3551Z" fill="#7F0100"/>
<path d="M27.1238 24.6144C27.1238 25.8592 27.0227 26.8686 26.9027 26.8686C26.7826 26.8686 26.6925 25.8623 26.6941 24.6159C26.6957 23.3695 26.7983 22.3617 26.9152 22.3617C27.0321 22.3617 27.1285 23.3695 27.1238 24.6144Z" fill="#7F0100"/>
<path d="M36.6006 28.1718C36.3384 27.8243 37.8642 26.6775 38.1295 27.0265C38.3948 27.3756 36.8612 28.5209 36.6006 28.1718Z" fill="#F389A4"/>
<path d="M36.9797 27.9571C36.8613 27.7991 37.6969 27.1672 37.8168 27.3252C37.9369 27.483 37.0997 28.1166 36.9797 27.9571Z" fill="#E34E70"/>
<path d="M37.504 26.6442C37.1881 26.3411 38.349 25.1483 38.6619 25.4515C38.9745 25.7548 37.8104 26.9492 37.504 26.6442Z" fill="#F389A4"/>
<path d="M37.8009 26.412C37.6572 26.273 38.2922 25.6222 38.4328 25.7597C38.5734 25.8972 37.9431 26.5511 37.8009 26.412Z" fill="#E34E70"/>
<path d="M39.1485 24.4312C38.7313 24.3031 39.2163 22.7125 39.6332 22.8403C40.0504 22.9684 39.5574 24.5606 39.1483 24.4311" fill="#F7B3C5"/>
<path d="M39.311 24.0867C39.1199 24.0283 39.3868 23.1595 39.5748 23.2164C39.7627 23.2733 39.499 24.1452 39.311 24.0867Z" fill="#E34E70"/>
<path d="M34.8821 28.1134C34.6973 27.7184 36.3731 26.935 36.5564 27.3314C36.7395 27.7279 35.0653 28.5082 34.8821 28.1134Z" fill="#F389A4"/>
<path d="M35.2928 27.987C35.209 27.8053 36.1235 27.3773 36.2089 27.5573C36.2942 27.7375 35.367 28.1672 35.2928 27.987Z" fill="#E34E70"/>
<path d="M39.0836 25.8607C38.7187 25.6253 39.6222 24.2273 39.9854 24.4659C40.3487 24.7043 39.4515 26.0976 39.0836 25.8607Z" fill="#F7B3C5"/>
<path d="M39.3378 25.5749C39.1705 25.4658 39.6648 24.703 39.8306 24.8104C39.9964 24.9177 39.5037 25.6822 39.3378 25.5749Z" fill="#E34E70"/>
<path d="M32.3406 30.3613C32.5097 29.93 34.0781 30.5477 33.9203 30.9806C33.7622 31.4135 32.1702 30.7942 32.3406 30.3613Z" fill="#F389A4"/>
<path d="M32.6756 30.5525C32.753 30.355 33.6138 30.6947 33.5381 30.8904C33.4622 31.0864 32.5966 30.7545 32.6756 30.5525Z" fill="#E34E70"/>
<path d="M34.5504 30.8685C34.6689 30.3297 36.2879 30.6883 36.1709 31.2271C36.054 31.7657 34.4303 31.4071 34.5504 30.8685Z" fill="#F389A4"/>
<path d="M34.9026 31.0264C34.958 30.7785 35.8503 30.9758 35.7903 31.2206C35.7303 31.4655 34.8473 31.2633 34.9026 31.0264Z" fill="#E34E70"/>
<path d="M30.9696 28.4846C31.3678 28.0456 32.7356 29.2918 32.3392 29.7278C31.9426 30.1637 30.5717 28.9221 30.9696 28.4846Z" fill="#F389A4"/>
<path d="M31.2287 28.8148C31.412 28.6142 32.159 29.2966 31.9775 29.4956C31.7958 29.6947 31.0472 29.0217 31.2287 28.8148Z" fill="#E34E70"/>
<path d="M36.7317 31.4735C36.7317 31.0975 38.1342 31.126 38.1264 31.5019C38.1186 31.8778 36.7222 31.851 36.7317 31.4735Z" fill="#F7B3C5"/>
<path d="M37.0443 31.5288C37.0443 31.3551 37.8104 31.3708 37.8089 31.5413C37.8073 31.7121 37.0412 31.6994 37.0443 31.5288Z" fill="#E34E70"/>
<path d="M31.551 32.9536C31.6694 32.415 33.2885 32.7736 33.1732 33.3122C33.0578 33.8509 31.4325 33.4923 31.551 32.9536Z" fill="#F389A4"/>
<path d="M31.9031 33.1037C31.9584 32.8556 32.8509 33.0515 32.7909 33.298C32.7309 33.5444 31.8479 33.347 31.9032 33.1037" fill="#E34E70"/>
<path d="M24.5144 31.1953C24.5144 30.6441 26.4761 30.6172 26.4841 31.1702C26.4919 31.723 24.5224 31.7483 24.5144 31.1955" fill="#F389A4"/>
<path d="M24.9614 31.2602C24.9614 31.0075 26.0339 30.9933 26.0386 31.2444C26.0433 31.4957 24.9646 31.5114 24.9614 31.2602Z" fill="#E34E70"/>
<path d="M27.0558 31.8558C27.4395 31.4592 28.6353 32.6203 28.2452 33.0152C27.855 33.4102 26.672 32.2522 27.0558 31.8558Z" fill="#F389A4"/>
<path d="M27.2753 32.1684C27.4537 31.9869 28.103 32.6219 27.9292 32.8003C27.7555 32.9789 27.1016 32.347 27.2753 32.1684Z" fill="#E34E70"/>
<path d="M28.9559 33.4244C29.5056 33.4544 29.4139 35.1147 28.8627 35.0847C28.3114 35.0547 28.4047 33.396 28.9559 33.4244Z" fill="#F7B3C5"/>
<path d="M28.8643 33.7956C29.1171 33.8096 29.0665 34.7181 28.8169 34.7039C28.5674 34.6898 28.6132 33.7814 28.8643 33.7956Z" fill="#E34E70"/>
<path d="M28.0099 35.1004C28.55 35.2109 28.2183 36.8379 27.6782 36.7321C27.138 36.6264 27.4697 34.9915 28.0099 35.1004Z" fill="#F7B3C5"/>
<path d="M27.8693 35.4495C28.1172 35.5017 27.9357 36.3973 27.6893 36.3435C27.4429 36.2899 27.6213 35.4053 27.8693 35.4495Z" fill="#E34E70"/>
<path d="M28.5437 36.8333C29.0839 36.944 28.7521 38.5712 28.212 38.4637C27.6717 38.3563 28.0035 36.7244 28.5437 36.8333Z" fill="#F7B3C5"/>
<path d="M28.4 37.1871C28.648 37.2378 28.4678 38.1349 28.2198 38.0796C27.9719 38.0243 28.1552 37.1367 28.4 37.1871Z" fill="#E34E70"/>
<path d="M27.3069 38.6407C27.8455 38.7496 27.5155 40.3782 26.9753 40.2692C26.435 40.1602 26.7636 38.53 27.3069 38.6405" fill="#F7B3C5"/>
<path d="M27.1616 38.9944C27.4111 39.0466 27.2296 39.9422 26.9832 39.8869C26.7368 39.8316 26.9216 38.9439 27.1616 38.9944Z" fill="#E34E70"/>
<path d="M27.6133 40.5456C28.163 40.5662 28.1014 42.2279 27.5502 42.2075C26.9989 42.187 27.0605 40.5251 27.6133 40.5456Z" fill="#F7B3C5"/>
<path d="M27.5282 40.92C27.7824 40.9311 27.7477 41.8394 27.4964 41.83C27.2454 41.8205 27.2785 40.9106 27.5282 40.92Z" fill="#E34E70"/>
<path d="M27.3385 42.8994C27.7666 42.5519 28.6432 43.6324 28.2135 43.98C27.784 44.3275 26.9105 43.2453 27.3385 42.8994Z" fill="#F7B3C5"/>
<path d="M27.4822 43.19C27.6797 43.0322 28.1583 43.6228 27.9561 43.7809C27.7539 43.9388 27.2879 43.3481 27.4822 43.19Z" fill="#E34E70"/>
<path d="M28.7821 43.9232C29.0032 43.5219 30.0142 44.081 29.7931 44.4791C29.5718 44.8772 28.5611 44.3244 28.7821 43.9232Z" fill="#F389A4"/>
<path d="M28.9828 44.1C29.0839 43.9152 29.6367 44.22 29.5372 44.4016C29.4377 44.5835 28.8817 44.2833 28.9828 44.1Z" fill="#E34E70"/>
<path d="M30.0584 45.1458C30.0915 44.7302 31.0834 44.8108 31.0487 45.2263C31.0139 45.6419 30.0237 45.5597 30.0584 45.1458Z" fill="#F389A4"/>
<path d="M30.2779 45.2153C30.2935 45.0256 30.8354 45.0684 30.8212 45.258C30.8071 45.4475 30.2621 45.4017 30.2779 45.2153Z" fill="#E34E70"/>
<path d="M31.4454 44.8976C31.3568 44.5281 32.2349 44.3148 32.3266 44.6845C32.4182 45.054 31.5352 45.2673 31.4454 44.8976Z" fill="#F389A4"/>
<path d="M31.66 44.8945C31.6205 44.7272 32.1022 44.6101 32.1433 44.7761C32.1844 44.942 31.6964 45.0636 31.66 44.8945Z" fill="#E34E70"/>
<path d="M32.775 44.9278C32.6297 44.5755 33.4685 44.2278 33.6122 44.5801C33.756 44.9325 32.9236 45.2722 32.7752 44.9278" fill="#F389A4"/>
<path d="M32.982 44.8851C32.9171 44.7272 33.3753 44.5359 33.4415 44.6939C33.5079 44.8519 33.0482 45.0462 32.982 44.8851Z" fill="#E34E70"/>
<path d="M33.5237 43.9893C33.2456 43.7303 33.8649 43.0653 34.1414 43.3243C34.4178 43.5834 33.8017 44.2484 33.5237 43.9893Z" fill="#F389A4"/>
<path d="M33.6991 43.871C33.5727 43.751 33.9092 43.3875 34.0355 43.506C34.1619 43.6245 33.8255 43.9894 33.6991 43.871Z" fill="#E34E70"/>
<path d="M34.5456 42.8016C34.1808 42.6972 34.4336 41.8236 34.7984 41.9311C35.1633 42.0385 34.9089 42.9091 34.5456 42.8016Z" fill="#F389A4"/>
<path d="M34.6484 42.6183C34.4904 42.5692 34.6198 42.0922 34.7857 42.1444C34.9515 42.1964 34.8188 42.6687 34.6482 42.6183" fill="#E34E70"/>
<path d="M33.568 34.2758C33.6153 33.7277 35.2706 33.8698 35.2217 34.4211C35.1728 34.9725 33.5191 34.8272 33.568 34.2758Z" fill="#F389A4"/>
<path d="M33.9359 34.3785C33.9597 34.1258 34.8631 34.2063 34.8411 34.456C34.8189 34.7055 33.9139 34.6281 33.9359 34.3785Z" fill="#E34E70"/>
<path d="M35.555 33.6976C35.5659 33.1557 37.2261 33.189 37.2134 33.7323C37.2009 34.2757 35.5423 34.241 35.555 33.6976Z" fill="#F7B3C5"/>
<path d="M35.9246 33.775C35.9246 33.5254 36.8375 33.5459 36.8328 33.7925C36.8282 34.0389 35.9246 34.0278 35.9246 33.775Z" fill="#E34E70"/>
<path d="M37.4361 34.3848C37.5545 33.8636 39.0014 34.1937 38.8783 34.7181C38.755 35.2426 37.3145 34.9092 37.4361 34.3848Z" fill="#F7B3C5"/>
<path d="M37.7474 34.5271C37.8026 34.2885 38.5924 34.4702 38.5371 34.7071C38.4818 34.9441 37.6921 34.7671 37.7474 34.5271Z" fill="#E34E70"/>
<path d="M39.4453 34.4244C39.69 33.9505 40.8985 34.5697 40.6503 35.0563C40.4024 35.5428 39.2003 34.903 39.4453 34.4244Z" fill="#FACFDA"/>
<path d="M39.6869 34.6265C39.8006 34.4068 40.4577 34.7496 40.3488 34.9645C40.2397 35.1793 39.5747 34.8445 39.6869 34.6265Z" fill="#E34E70"/>
<path d="M40.7183 35.7922C41.118 35.6122 41.5761 36.6266 41.1748 36.8066C40.7736 36.9866 40.317 35.9741 40.7183 35.7923" fill="#FACFDA"/>
<path d="M40.7703 36.0468C40.9536 35.963 41.2031 36.5207 41.0231 36.5996C40.8431 36.6786 40.5872 36.1272 40.7705 36.0468" fill="#E34E70"/>
<path d="M41.8382 37.0166C42.2757 37.0166 42.2725 38.1304 41.8382 38.1224C41.4038 38.1146 41.3991 37.015 41.8382 37.0166Z" fill="#FACFDA"/>
<path d="M41.7796 37.2694C41.9834 37.2694 41.9803 37.8775 41.7796 37.8775C41.579 37.8775 41.5806 37.2678 41.7796 37.2694Z" fill="#E34E70"/>
<path d="M41.4101 38.451C41.8003 38.5221 41.617 39.519 41.2253 39.4447C40.8336 39.3704 41.0168 38.383 41.4101 38.451Z" fill="#FACFDA"/>
<path d="M41.3168 38.6722C41.4986 38.7069 41.3975 39.2504 41.219 39.2172C41.0404 39.1839 41.1368 38.6391 41.3168 38.6722Z" fill="#E34E70"/>
<path d="M41.4528 39.8932C41.7686 40.0685 41.32 40.8679 41.0043 40.6831C40.6883 40.4982 41.1369 39.7146 41.4527 39.8932" fill="#FACFDA"/>
<path d="M41.3169 40.0497C41.4607 40.1318 41.2158 40.5679 41.0721 40.4857C40.9283 40.4035 41.1716 39.9691 41.3169 40.0497Z" fill="#E34E70"/>
<path d="M40.5146 40.9547C40.7341 41.1681 40.1908 41.7274 39.9713 41.5109C39.7518 41.2944 40.295 40.7384 40.5146 40.9547Z" fill="#FACFDA"/>
<path d="M40.3645 41.0528C40.4656 41.1522 40.167 41.4557 40.0676 41.3575C39.9679 41.2597 40.2634 40.9549 40.3645 41.0528Z" fill="#E34E70"/>
<path d="M38.4059 31.2459C38.2811 30.7198 39.897 30.3361 40.0233 30.8653C40.1497 31.3944 38.5323 31.7767 38.4059 31.2459Z" fill="#F7B3C5"/>
<path d="M38.7897 31.2286C38.7329 30.9853 39.6143 30.7767 39.6727 31.0168C39.7312 31.257 38.8449 31.4687 38.7897 31.2286Z" fill="#E34E70"/>
<path d="M40.4766 31.3881C40.3188 30.9379 41.8855 30.3881 42.0435 30.84C42.2014 31.2917 40.633 31.8415 40.4766 31.3881Z" fill="#FACFDA"/>
<path d="M40.8509 31.3219C40.7782 31.1133 41.6407 30.8147 41.7087 31.02C41.7765 31.2255 40.9236 31.5289 40.8509 31.3219Z" fill="#E34E70"/>
<path d="M41.8903 30.2065C41.5744 29.851 42.8 28.7342 43.1224 29.0881C43.4445 29.4418 42.2109 30.5603 41.8903 30.2065Z" fill="#FACFDA"/>
<path d="M42.2094 29.9979C42.0625 29.8401 42.7369 29.2254 42.8822 29.385C43.0275 29.5447 42.3563 30.159 42.2094 29.9979Z" fill="#E34E70"/>
<path d="M43.901 29.0612C43.5014 28.7957 44.4253 27.412 44.8235 27.6773C45.2214 27.9428 44.2958 29.3265 43.901 29.0612Z" fill="#FACFDA"/>
<path d="M44.1584 28.7816C43.9767 28.6584 44.4822 27.905 44.6622 28.0234C44.8423 28.1419 44.34 28.9016 44.1584 28.7816Z" fill="#E34E70"/>
<path d="M44.468 27.0881C44.0196 26.9192 44.6102 25.3646 45.0555 25.5321C45.501 25.6996 44.9133 27.2587 44.468 27.0881Z" fill="#FACFDA"/>
<path d="M44.6575 26.7612C44.4522 26.6821 44.7759 25.8323 44.9734 25.9096C45.1708 25.9871 44.8612 26.8354 44.6575 26.7612Z" fill="#E34E70"/>
<path d="M45.2941 24.9414C44.9435 24.9809 44.8093 23.7581 45.1597 23.7187C45.5105 23.6792 45.6463 24.9018 45.2941 24.9414Z" fill="#FACFDA"/>
<path d="M45.3083 24.6601C45.1503 24.6759 45.0761 24.0078 45.234 23.992C45.3919 23.9762 45.4694 24.6412 45.3083 24.6601Z" fill="#E34E70"/>
<path d="M40.2318 23.1625C39.8006 23.1105 40.0028 21.4581 40.434 21.5134C40.8653 21.5688 40.6629 23.2163 40.2318 23.1625Z" fill="#F7B3C5"/>
<path d="M40.3328 22.7961C40.1339 22.7725 40.2461 21.869 40.4419 21.8925C40.6378 21.9163 40.5303 22.8199 40.333 22.7961" fill="#E34E70"/>
<path d="M39.5859 21.8405C39.1531 21.8767 39.0187 20.2181 39.4547 20.1833C39.8906 20.1486 40.0219 21.8056 39.5859 21.8405Z" fill="#F7B3C5"/>
<path d="M39.6109 21.4597C39.412 21.4755 39.3409 20.5703 39.5384 20.553C39.7358 20.5356 39.8102 21.4455 39.6111 21.4597" fill="#E34E70"/>
<path d="M40.0518 19.7773C39.6569 19.959 38.9668 18.4472 39.3632 18.2656C39.7596 18.0839 40.4499 19.5972 40.0518 19.7773Z" fill="#F7B3C5"/>
<path d="M39.9459 19.4125C39.7659 19.4945 39.3884 18.67 39.5669 18.5862C39.7453 18.5025 40.1275 19.3367 39.9459 19.4125Z" fill="#E34E70"/>
<path d="M38.7374 18.561C38.3821 18.76 37.632 17.4079 37.989 17.2104C38.3459 17.0129 39.096 18.3619 38.7374 18.561Z" fill="#F7B3C5"/>
<path d="M38.6097 18.2308C38.4518 18.3225 38.0378 17.5847 38.2006 17.4931C38.3632 17.4014 38.7772 18.1392 38.6097 18.2308Z" fill="#E34E70"/>
<path d="M38.4944 16.8943C38.1913 17.1314 37.3194 16.0129 37.6256 15.7743C37.932 15.5357 38.8024 16.6511 38.4944 16.8943Z" fill="#F7B3C5"/>
<path d="M38.3364 16.6101C38.1973 16.7191 37.7204 16.1077 37.8626 15.9988C38.0048 15.8897 38.477 16.5012 38.3364 16.6101Z" fill="#E34E70"/>
<path d="M37.0302 16.2136C36.738 16.4678 35.8126 15.3936 36.1063 15.1409C36.4001 14.8881 37.3193 15.9608 37.0302 16.2136Z" fill="#F7B3C5"/>
<path d="M36.8517 15.9386C36.7189 16.0556 36.22 15.4647 36.3462 15.3526C36.4726 15.2405 36.9875 15.8233 36.8517 15.9386Z" fill="#E34E70"/>
<path d="M36.3653 14.7823C36.1014 15.0098 35.345 14.1314 35.6103 13.9041C35.8756 13.6766 36.6306 14.5533 36.3653 14.7822" fill="#F7B3C5"/>
<path d="M36.2278 14.5532C36.1062 14.6575 35.6923 14.1774 35.814 14.0794C35.9356 13.9814 36.3478 14.4507 36.2278 14.5533" fill="#E34E70"/>
<path d="M35.0968 14.4995C34.7999 14.6797 34.1981 13.6892 34.4984 13.5075C34.7984 13.3258 35.3985 14.3161 35.0968 14.4995Z" fill="#F389A4"/>
<path d="M34.999 14.2515C34.8647 14.3337 34.5347 13.7934 34.6704 13.7097C34.8064 13.6259 35.1348 14.1694 34.999 14.2515Z" fill="#E34E70"/>
<path d="M34.9768 13.31C34.6436 13.408 34.3862 12.5486 34.7226 12.449C35.059 12.3495 35.3086 13.2089 34.9768 13.31Z" fill="#F389A4"/>
<path d="M34.9547 13.1016C34.7969 13.1474 34.6625 12.6766 34.8158 12.6277C34.9689 12.5786 35.108 13.0558 34.9548 13.1016" fill="#E34E70"/>
<path d="M34.0529 12.3528C33.7244 12.2375 34.0213 11.3906 34.3514 11.5075C34.6816 11.6245 34.3829 12.4713 34.0529 12.3528Z" fill="#F389A4"/>
<path d="M34.1619 12.1758C34.0041 12.1253 34.1744 11.6608 34.3197 11.7145C34.465 11.7683 34.3119 12.228 34.1619 12.1758Z" fill="#E34E70"/>
<path d="M34.8885 11.3734C34.8332 11.0289 35.7177 10.89 35.7729 11.2359C35.8283 11.5819 34.9422 11.7225 34.8885 11.3734Z" fill="#F389A4"/>
<path d="M35.0953 11.386C35.07 11.2282 35.555 11.1538 35.5786 11.3102C35.6023 11.4664 35.1206 11.5439 35.0953 11.386Z" fill="#E34E70"/>
<path d="M14.401 28.1718C14.6616 27.8243 13.1374 26.6775 12.8705 27.0265C12.6036 27.3756 14.1388 28.5209 14.401 28.1718Z" fill="#F389A4"/>
<path d="M14.0203 27.9571C14.1387 27.7991 13.3031 27.1672 13.1833 27.3252C13.0631 27.483 13.9003 28.1166 14.0203 27.9571Z" fill="#E34E70"/>
<path d="M13.4959 26.6442C13.8119 26.3411 12.6509 25.1483 12.3381 25.4515C12.0255 25.7548 13.1895 26.9492 13.4959 26.6442Z" fill="#F389A4"/>
<path d="M13.1991 26.412C13.3428 26.273 12.7078 25.6222 12.5672 25.7597C12.4266 25.8972 13.0569 26.5511 13.1991 26.412Z" fill="#E34E70"/>
<path d="M11.8515 24.4312C12.2687 24.3031 11.7837 22.7125 11.3668 22.8403C10.9496 22.9684 11.4426 24.5606 11.8517 24.4311" fill="#F7B3C5"/>
<path d="M11.689 24.0867C11.8801 24.0283 11.6133 23.1595 11.4253 23.2164C11.2373 23.2733 11.5011 24.1452 11.689 24.0867Z" fill="#E34E70"/>
<path d="M16.1195 28.1134C16.3026 27.7184 14.6268 26.935 14.4435 27.3314C14.2604 27.7279 15.9346 28.5082 16.1195 28.1134Z" fill="#F389A4"/>
<path d="M15.7151 27.987C15.7989 27.8053 14.8844 27.3773 14.799 27.5573C14.7137 27.7375 15.6329 28.1672 15.7151 27.987Z" fill="#E34E70"/>
<path d="M11.9164 25.8607C12.2812 25.6253 11.3778 24.2273 11.0145 24.4659C10.6512 24.7043 11.5484 26.0976 11.9164 25.8607Z" fill="#F7B3C5"/>
<path d="M11.6622 25.5749C11.8295 25.4658 11.3351 24.703 11.1694 24.8104C11.0036 24.9177 11.4962 25.6822 11.6622 25.5749Z" fill="#E34E70"/>
<path d="M18.7334 30.314C18.5472 29.8399 16.7701 30.5351 16.9566 31.0137C17.143 31.4923 18.9214 30.791 18.7334 30.314Z" fill="#F389A4"/>
<path d="M18.356 30.5334C18.2691 30.3139 17.2978 30.6914 17.3814 30.9142C17.4652 31.137 18.4413 30.75 18.356 30.5334Z" fill="#E34E70"/>
<path d="M16.4495 30.8685C16.3311 30.3297 14.712 30.6883 14.829 31.2271C14.9459 31.7657 16.5697 31.4071 16.4495 30.8685Z" fill="#F389A4"/>
<path d="M16.0973 31.0264C16.042 30.7785 15.1497 30.9758 15.2097 31.2206C15.2697 31.4655 16.1526 31.2633 16.0973 31.0264Z" fill="#E34E70"/>
<path d="M20.0303 28.4846C19.6322 28.0456 18.2644 29.2918 18.6608 29.7278C19.0573 30.1637 20.4283 28.9221 20.0303 28.4846Z" fill="#F389A4"/>
<path d="M19.7712 28.8148C19.5879 28.6142 18.8409 29.2966 19.0225 29.4956C19.2042 29.6947 19.9528 29.0217 19.7712 28.8148Z" fill="#E34E70"/>
<path d="M14.5021 31.4307C14.4911 31.0264 13.0585 31.0468 13.0711 31.4529C13.0836 31.8589 14.5132 31.8382 14.5021 31.4307Z" fill="#F7B3C5"/>
<path d="M14.1798 31.4876C14.1798 31.3012 13.3901 31.3154 13.3901 31.4986C13.3901 31.682 14.1845 31.674 14.1798 31.4876Z" fill="#E34E70"/>
<path d="M19.4491 32.9536C19.3307 32.415 17.7116 32.7736 17.8269 33.3122C17.9422 33.8509 19.5675 33.4923 19.4491 32.9536Z" fill="#F389A4"/>
<path d="M19.0969 33.1037C19.0416 32.8556 18.1491 33.0515 18.2091 33.298C18.2691 33.5444 19.1522 33.347 19.0969 33.1037Z" fill="#E34E70"/>
<path d="M24.0295 31.9584C23.7136 31.5065 22.352 32.4592 22.6679 32.9062C22.9839 33.3532 24.3454 32.4117 24.0295 31.9584Z" fill="#F389A4"/>
<path d="M23.7624 32.2317C23.6156 32.0247 22.8734 32.5476 23.0156 32.7514C23.1576 32.9551 23.9046 32.437 23.7624 32.2317Z" fill="#E34E70"/>
<path d="M22.044 33.4244C21.4944 33.4544 21.5861 35.1147 22.1373 35.0847C22.6886 35.0547 22.5953 33.396 22.044 33.4244Z" fill="#F7B3C5"/>
<path d="M22.1357 33.7956C21.8829 33.8096 21.9335 34.7181 22.1831 34.7039C22.4326 34.6898 22.3868 33.7814 22.1357 33.7956Z" fill="#E34E70"/>
<path d="M22.9902 35.1004C22.45 35.2109 22.7817 36.8379 23.3219 36.7321C23.8621 36.6264 23.5303 34.9915 22.9902 35.1004Z" fill="#F7B3C5"/>
<path d="M23.1308 35.4495C22.8828 35.5017 23.0644 36.3973 23.3108 36.3435C23.5572 36.2899 23.3787 35.4053 23.1308 35.4495Z" fill="#E34E70"/>
<path d="M22.4562 36.8333C21.9161 36.944 22.2478 38.5712 22.788 38.4637C23.3283 38.3563 22.9966 36.7244 22.4564 36.8333" fill="#F7B3C5"/>
<path d="M22.5999 37.1871C22.352 37.2378 22.5321 38.1349 22.7801 38.0796C23.0281 38.0243 22.8448 37.1367 22.5999 37.1871Z" fill="#E34E70"/>
<path d="M23.6932 38.6407C23.1546 38.7496 23.4846 40.3782 24.0247 40.2692C24.565 40.1602 24.2364 38.53 23.6932 38.6405" fill="#F7B3C5"/>
<path d="M23.8384 38.9944C23.5889 39.0466 23.7704 39.9422 24.0168 39.8869C24.2633 39.8316 24.0784 38.9439 23.8384 38.9944Z" fill="#E34E70"/>
<path d="M23.3868 40.5456C22.8386 40.5662 22.8986 42.2279 23.4499 42.2075C24.0011 42.187 23.9396 40.5251 23.3868 40.5456Z" fill="#F7B3C5"/>
<path d="M23.4719 40.92C23.2177 40.9311 23.2523 41.8394 23.5036 41.83C23.7547 41.8205 23.7216 40.9106 23.4719 40.92Z" fill="#E34E70"/>
<path d="M23.6615 42.8994C23.2334 42.5519 22.3568 43.6324 22.7865 43.98C23.2161 44.3275 24.0895 43.2453 23.6615 42.8994Z" fill="#F7B3C5"/>
<path d="M23.5178 43.19C23.3203 43.0322 22.8418 43.6228 23.0439 43.7809C23.2461 43.9388 23.7121 43.3481 23.5178 43.19Z" fill="#E34E70"/>
<path d="M22.2178 43.9232C21.9967 43.5219 20.9857 44.081 21.2068 44.4791C21.4281 44.8772 22.4389 44.3244 22.2178 43.9232Z" fill="#F389A4"/>
<path d="M22.025 44.1C21.9241 43.9152 21.3713 44.22 21.4708 44.4016C21.5703 44.5835 22.1181 44.2833 22.025 44.1Z" fill="#E34E70"/>
<path d="M20.9415 45.1458C20.9084 44.7302 19.9165 44.8108 19.9512 45.2263C19.9861 45.6419 20.9762 45.5597 20.9415 45.1458Z" fill="#F389A4"/>
<path d="M20.722 45.2153C20.7064 45.0256 20.1645 45.0684 20.1787 45.258C20.1928 45.4475 20.7378 45.4017 20.722 45.2153Z" fill="#E34E70"/>
<path d="M19.5546 44.8976C19.6432 44.5281 18.7651 44.3148 18.6734 44.6845C18.5818 45.054 19.4648 45.2673 19.5546 44.8976Z" fill="#F389A4"/>
<path d="M19.34 44.8945C19.3795 44.7272 18.8978 44.6101 18.8567 44.7761C18.8156 44.942 19.3036 45.0636 19.34 44.8945Z" fill="#E34E70"/>
<path d="M18.225 44.9278C18.3703 44.5755 17.5316 44.2278 17.3878 44.5801C17.2441 44.9325 18.0766 45.2722 18.225 44.9278Z" fill="#F389A4"/>
<path d="M18.0179 44.8851C18.0828 44.7272 17.6247 44.5359 17.5584 44.6939C17.492 44.8519 17.9517 45.0462 18.0179 44.8851Z" fill="#E34E70"/>
<path d="M17.4763 43.9893C17.7544 43.7303 17.1351 43.0653 16.8587 43.3243C16.5822 43.5834 17.1983 44.2484 17.4763 43.9893Z" fill="#F389A4"/>
<path d="M17.301 43.871C17.4274 43.751 17.0908 43.3875 16.9646 43.506C16.8382 43.6245 17.1746 43.9894 17.301 43.871Z" fill="#E34E70"/>
<path d="M16.4543 42.8016C16.8192 42.6972 16.5664 41.8236 16.2015 41.9311C15.8367 42.0385 16.091 42.9091 16.4543 42.8016Z" fill="#F389A4"/>
<path d="M16.3515 42.6183C16.5095 42.5692 16.3801 42.0922 16.2142 42.1444C16.0484 42.1964 16.1809 42.6687 16.3515 42.6183Z" fill="#E34E70"/>
<path d="M17.432 34.2758C17.3847 33.7277 15.7294 33.8698 15.7783 34.4211C15.8272 34.9725 17.4809 34.8272 17.432 34.2758Z" fill="#F389A4"/>
<path d="M17.0641 34.3785C17.0404 34.1258 16.1369 34.2063 16.159 34.456C16.1812 34.7055 17.0862 34.6281 17.0641 34.3785Z" fill="#E34E70"/>
<path d="M15.445 33.6976C15.4341 33.1557 13.7739 33.189 13.7866 33.7323C13.7991 34.2757 15.4577 34.241 15.445 33.6976Z" fill="#F7B3C5"/>
<path d="M15.0754 33.775C15.0754 33.5254 14.1624 33.5459 14.1671 33.7925C14.1718 34.0389 15.0754 34.0278 15.0754 33.775Z" fill="#E34E70"/>
<path d="M13.5639 34.3848C13.4455 33.8636 12.0002 34.1937 12.1218 34.7181C12.2435 35.2426 13.6855 34.9092 13.5639 34.3848Z" fill="#F7B3C5"/>
<path d="M13.2527 34.5271C13.1975 34.2885 12.4077 34.4702 12.463 34.7071C12.5183 34.9441 13.308 34.7671 13.2527 34.5271Z" fill="#E34E70"/>
<path d="M11.5547 34.4244C11.31 33.9505 10.1015 34.5697 10.3497 35.0563C10.5976 35.5428 11.7997 34.903 11.5547 34.4244Z" fill="#FACFDA"/>
<path d="M11.3132 34.6265C11.1994 34.4068 10.5424 34.7496 10.6513 34.9645C10.7604 35.1793 11.4254 34.8445 11.3132 34.6265Z" fill="#E34E70"/>
<path d="M10.2818 35.7922C9.88207 35.6122 9.42395 36.6266 9.8252 36.8066C10.2264 36.9866 10.683 35.9741 10.2818 35.7923" fill="#FACFDA"/>
<path d="M10.2297 36.0468C10.0464 35.963 9.79692 36.5207 9.97692 36.5996C10.1569 36.6786 10.4129 36.1272 10.2296 36.0468" fill="#E34E70"/>
<path d="M9.16192 37.0166C8.72442 37.0166 8.72754 38.1304 9.16192 38.1224C9.59629 38.1146 9.60098 37.015 9.16192 37.0166Z" fill="#FACFDA"/>
<path d="M9.22037 37.2694C9.01662 37.2694 9.01974 37.8775 9.22037 37.8775C9.42099 37.8775 9.42099 37.2678 9.22037 37.2694Z" fill="#E34E70"/>
<path d="M9.58989 38.451C9.19974 38.5221 9.38302 39.519 9.77474 39.4447C10.1665 39.3704 9.98317 38.383 9.58989 38.451Z" fill="#FACFDA"/>
<path d="M9.68312 38.6722C9.5014 38.7069 9.6025 39.2504 9.78094 39.2172C9.95953 39.1839 9.86312 38.6391 9.68312 38.6722Z" fill="#E34E70"/>
<path d="M9.54713 39.8932C9.23135 40.0685 9.67995 40.8679 9.99573 40.6831C10.3117 40.4982 9.86292 39.7146 9.54713 39.8932Z" fill="#FACFDA"/>
<path d="M9.6831 40.0497C9.53935 40.1318 9.7842 40.5679 9.92795 40.4857C10.0717 40.4035 9.82842 39.9691 9.6831 40.0497Z" fill="#E34E70"/>
<path d="M10.4855 40.9547C10.266 41.1681 10.8014 41.7274 11.0288 41.5109C11.2563 41.2944 10.705 40.7384 10.4855 40.9547Z" fill="#FACFDA"/>
<path d="M10.6355 41.0528C10.5344 41.1522 10.833 41.4557 10.9323 41.3575C11.032 41.2597 10.7366 40.9549 10.6355 41.0528Z" fill="#E34E70"/>
<path d="M12.5941 31.2459C12.7189 30.7198 11.103 30.3361 10.9768 30.8653C10.8504 31.3944 12.4677 31.7767 12.5941 31.2459Z" fill="#F7B3C5"/>
<path d="M12.2103 31.2286C12.2672 30.9853 11.3858 30.7767 11.3274 31.0168C11.2689 31.257 12.1552 31.4687 12.2103 31.2286Z" fill="#E34E70"/>
<path d="M10.5235 31.3881C10.6813 30.9379 9.11457 30.3881 8.9566 30.84C8.79863 31.2917 10.3671 31.8415 10.5235 31.3881Z" fill="#FACFDA"/>
<path d="M10.1491 31.3219C10.2218 31.1133 9.35928 30.8147 9.29131 31.02C9.2235 31.2255 10.0765 31.5289 10.1491 31.3219Z" fill="#E34E70"/>
<path d="M9.10968 30.2065C9.42562 29.851 8.2 28.7342 7.87765 29.0881C7.55546 29.4418 8.78906 30.5603 9.10968 30.2065Z" fill="#FACFDA"/>
<path d="M8.79069 29.9979C8.93756 29.8401 8.26319 29.2254 8.11787 29.385C7.97256 29.5447 8.64381 30.159 8.79069 29.9979Z" fill="#E34E70"/>
<path d="M7.09904 29.0612C7.49858 28.7957 6.57467 27.412 6.17654 27.6773C5.77858 27.9428 6.7042 29.3265 7.09904 29.0612Z" fill="#FACFDA"/>
<path d="M6.84156 28.7816C7.02328 28.6584 6.52562 27.905 6.33781 28.0234C6.14984 28.1419 6.65999 28.9016 6.84156 28.7816Z" fill="#E34E70"/>
<path d="M6.53203 27.0881C6.98047 26.9192 6.38984 25.3646 5.94453 25.5321C5.49906 25.6996 6.08672 27.2587 6.53203 27.0881Z" fill="#FACFDA"/>
<path d="M6.34252 26.7612C6.54783 26.6821 6.22408 25.8323 6.02658 25.9096C5.82924 25.9871 6.13877 26.8354 6.34252 26.7612Z" fill="#E34E70"/>
<path d="M5.70593 24.9414C6.05655 24.9809 6.19077 23.7581 5.8403 23.7187C5.48952 23.6792 5.35374 24.9018 5.70593 24.9414Z" fill="#FACFDA"/>
<path d="M5.69166 24.6601C5.84963 24.6759 5.92385 24.0078 5.76588 23.992C5.60807 23.9762 5.53057 24.6412 5.69166 24.6601Z" fill="#E34E70"/>
<path d="M10.7681 23.1625C11.1993 23.1105 10.9971 21.4581 10.5659 21.5134C10.1346 21.5688 10.337 23.2163 10.7681 23.1625Z" fill="#F7B3C5"/>
<path d="M10.6672 22.7961C10.8661 22.7725 10.7539 21.869 10.5582 21.8925C10.3622 21.9163 10.4699 22.8199 10.6672 22.7961Z" fill="#E34E70"/>
<path d="M11.414 21.8405C11.8468 21.8767 11.9812 20.2181 11.5453 20.1833C11.1093 20.1486 10.9781 21.8056 11.414 21.8405Z" fill="#F7B3C5"/>
<path d="M11.3891 21.4597C11.588 21.4755 11.6591 20.5703 11.4616 20.553C11.2642 20.5356 11.19 21.4455 11.3891 21.4597Z" fill="#E34E70"/>
<path d="M10.9482 19.7773C11.3431 19.959 12.0332 18.4472 11.6368 18.2656C11.2404 18.0839 10.5501 19.5972 10.9482 19.7773Z" fill="#F7B3C5"/>
<path d="M11.0541 19.4125C11.2341 19.4945 11.6116 18.67 11.4332 18.5862C11.2547 18.5025 10.8725 19.3367 11.0541 19.4125Z" fill="#E34E70"/>
<path d="M12.2625 18.561C12.6178 18.76 13.368 17.4079 13.011 17.2104C12.6541 17.0129 11.9039 18.3619 12.2625 18.561Z" fill="#F7B3C5"/>
<path d="M12.3904 18.2308C12.5482 18.3225 12.9622 17.5847 12.7994 17.4931C12.6368 17.4014 12.2229 18.1392 12.3904 18.2308Z" fill="#E34E70"/>
<path d="M12.5056 16.8943C12.8088 17.1314 13.6806 16.0129 13.3744 15.7743C13.068 15.5357 12.1977 16.6511 12.5056 16.8943Z" fill="#F7B3C5"/>
<path d="M12.6636 16.6101C12.8026 16.7191 13.2795 16.1077 13.1373 15.9988C12.9951 15.8897 12.5229 16.5012 12.6636 16.6101Z" fill="#E34E70"/>
<path d="M13.9698 16.2136C14.262 16.4678 15.1875 15.3936 14.8937 15.1409C14.6 14.8881 13.6808 15.9608 13.9698 16.2136Z" fill="#F7B3C5"/>
<path d="M14.1482 15.9386C14.281 16.0556 14.7799 15.4647 14.6537 15.3526C14.5273 15.2405 14.0124 15.8233 14.1482 15.9386Z" fill="#E34E70"/>
<path d="M14.6346 14.7823C14.8985 15.0098 15.655 14.1314 15.3896 13.9041C15.1243 13.6766 14.3693 14.5533 14.6346 14.7822" fill="#F7B3C5"/>
<path d="M14.7721 14.5532C14.8937 14.6575 15.3076 14.1774 15.1859 14.0794C15.0643 13.9814 14.6521 14.4507 14.7721 14.5533" fill="#E34E70"/>
<path d="M15.9031 14.4995C16.2 14.6797 16.8019 13.6892 16.5016 13.5075C16.2016 13.3258 15.6014 14.3161 15.9031 14.4995Z" fill="#F389A4"/>
<path d="M16.001 14.2515C16.1354 14.3337 16.4654 13.7934 16.3296 13.7097C16.1937 13.6259 15.8652 14.1694 16.001 14.2515Z" fill="#E34E70"/>
<path d="M16.0231 13.31C16.3564 13.408 16.6137 12.5486 16.2773 12.449C15.9409 12.3495 15.6914 13.2089 16.0231 13.31Z" fill="#F389A4"/>
<path d="M16.0453 13.1016C16.2031 13.1474 16.3374 12.6766 16.1842 12.6277C16.031 12.5786 15.8921 13.0558 16.0453 13.1016Z" fill="#E34E70"/>
<path d="M16.9471 12.3528C17.2756 12.2375 16.9803 11.3906 16.6485 11.5075C16.3168 11.6245 16.6171 12.4713 16.9471 12.3528Z" fill="#F389A4"/>
<path d="M16.8381 12.1758C16.996 12.1253 16.8256 11.6608 16.6803 11.7145C16.535 11.7683 16.6881 12.228 16.8381 12.1758Z" fill="#E34E70"/>
<path d="M16.1116 11.3734C16.1669 11.0289 15.2824 10.89 15.2272 11.2359C15.1718 11.5819 16.0579 11.7225 16.1116 11.3734Z" fill="#F389A4"/>
<path d="M15.9047 11.386C15.93 11.2282 15.445 11.1538 15.4214 11.3102C15.3976 11.4664 15.8794 11.5439 15.9047 11.386Z" fill="#E34E70"/>
</g>
<defs>
<radialGradient id="paint0_radial_270_2" cx="0" cy="0" r="1" gradientUnits="userSpaceOnUse" gradientTransform="translate(1989.03 1971.71) scale(1985.42 1985.42)">
<stop stop-color="#EE3B3B"/>
<stop offset="0.2" stop-color="#FF8684"/>
<stop offset="0.38" stop-color="#B54C4B"/>
<stop offset="0.54" stop-color="#C32827"/>
<stop offset="0.71" stop-color="#B64346"/>
<stop offset="0.86" stop-color="#C64143"/>
<stop offset="1" stop-color="#DA2B2B"/>
</radialGradient>
<linearGradient id="paint1_linear_270_2" x1="8.80306" y1="545.393" x2="1114.28" y2="545.393" gradientUnits="userSpaceOnUse">
<stop stop-color="#EB97AD"/>
<stop offset="0.19" stop-color="#F7B0C2"/>
<stop offset="0.38" stop-color="#F6A4B6"/>
<stop offset="0.58" stop-color="#F390A5"/>
<stop offset="0.79" stop-color="#E7728B"/>
<stop offset="0.99" stop-color="#DC4D6C"/>
<stop offset="1" stop-color="#DA4B6A"/>
</linearGradient>
<linearGradient id="paint2_linear_270_2" x1="5.94969" y1="293.908" x2="1514.04" y2="293.908" gradientUnits="userSpaceOnUse">
<stop stop-color="#E393A8"/>
<stop offset="0.19" stop-color="#F93C6C"/>
<stop offset="0.38" stop-color="#712133"/>
<stop offset="0.58" stop-color="#A32C45"/>
<stop offset="0.79" stop-color="#8D001E"/>
<stop offset="0.99" stop-color="#DC4D6C"/>
<stop offset="1" stop-color="#720019"/>
</linearGradient>
<radialGradient id="paint3_radial_270_2" cx="0" cy="0" r="1" gradientUnits="userSpaceOnUse" gradientTransform="translate(396.145 383.526) scale(694.5 694.501)">
<stop stop-color="#F7B3C5"/>
<stop offset="0.19" stop-color="#F7B0C2"/>
<stop offset="0.38" stop-color="#F6A4B6"/>
<stop offset="0.58" stop-color="#F390A5"/>
<stop offset="0.79" stop-color="#E7728B"/>
<stop offset="0.99" stop-color="#DC4D6C"/>
<stop offset="1" stop-color="#DA4B6A"/>
</radialGradient>
<radialGradient id="paint4_radial_270_2" cx="0" cy="0" r="1" gradientUnits="userSpaceOnUse" gradientTransform="translate(787.851 791.519) scale(859.078 859.08)">
<stop stop-color="#F9C5D3"/>
<stop offset="0.19" stop-color="#F7B0C2"/>
<stop offset="0.38" stop-color="#F6A4B6"/>
<stop offset="0.58" stop-color="#F390A5"/>
<stop offset="0.79" stop-color="#E7728B"/>
<stop offset="0.99" stop-color="#DC4D6C"/>
<stop offset="1" stop-color="#F17C96"/>
</radialGradient>
<linearGradient id="paint5_linear_270_2" x1="31.175" y1="545.401" x2="1136.5" y2="545.401" gradientUnits="userSpaceOnUse">
<stop stop-color="#F78DA4"/>
<stop offset="0.01" stop-color="#EB6F8A"/>
<stop offset="0.21" stop-color="#E7728B"/>
<stop offset="0.42" stop-color="#F390A5"/>
<stop offset="0.62" stop-color="#F6A4B6"/>
<stop offset="0.81" stop-color="#F7B0C2"/>
<stop offset="1" stop-color="#F7B3C5"/>
</linearGradient>
<linearGradient id="paint6_linear_270_2" x1="30.2813" y1="294.061" x2="1538.53" y2="294.061" gradientUnits="userSpaceOnUse">
<stop stop-color="#F87692"/>
<stop offset="0.01" stop-color="#FB8BA4"/>
<stop offset="0.0959658" stop-color="#F18AA0"/>
<stop offset="0.21" stop-color="#E7728B"/>
<stop offset="0.42" stop-color="#F390A5"/>
<stop offset="0.62" stop-color="#F6A4B6"/>
<stop offset="0.81" stop-color="#F7B0C2"/>
<stop offset="1" stop-color="#F7B3C5"/>
</linearGradient>
<radialGradient id="paint7_radial_270_2" cx="0" cy="0" r="1" gradientUnits="userSpaceOnUse" gradientTransform="translate(426.805 383.385) scale(694.501 694.497)">
<stop stop-color="#F7B3C5"/>
<stop offset="0.19" stop-color="#F7B0C2"/>
<stop offset="0.38" stop-color="#F6A4B6"/>
<stop offset="0.58" stop-color="#F390A5"/>
<stop offset="0.79" stop-color="#E7728B"/>
<stop offset="0.99" stop-color="#DC4D6C"/>
<stop offset="1" stop-color="#DA4B6A"/>
</radialGradient>
<clipPath id="clip0_270_2">
<rect width="40" height="40" fill="white" transform="translate(5.5 5.5)"/>
</clipPath>
</defs>
</svg>
