<svg width="51" height="51" viewBox="0 0 51 51" fill="none" xmlns="http://www.w3.org/2000/svg">
<g id="skill-icons:vite-dark" clip-path="url(#clip0_50_98)">
<g id="Group">
<path id="Vector" d="M38.7812 0.75H12.2188C5.74666 0.75 0.5 5.99666 0.5 12.4688V39.0312C0.5 45.5033 5.74666 50.75 12.2188 50.75H38.7812C45.2533 50.75 50.5 45.5033 50.5 39.0312V12.4688C50.5 5.99666 45.2533 0.75 38.7812 0.75Z" fill="#242938"/>
<path id="Vector_2" d="M44.8532 12.0004L26.5266 44.7713C26.1481 45.448 25.176 45.452 24.792 44.7787L6.10199 12.0033C5.68363 11.2697 6.31098 10.3811 7.14262 10.5297L25.4887 13.809C25.6058 13.8298 25.7256 13.8296 25.8426 13.8082L43.8051 10.5342C44.6338 10.3832 45.2641 11.265 44.8532 12.0004Z" fill="url(#paint0_linear_50_98)"/>
<path id="Vector_3" d="M34.2279 6.22852L20.6658 8.88575C20.5574 8.90693 20.4591 8.96356 20.3865 9.04673C20.3138 9.1299 20.2709 9.23487 20.2644 9.34513L19.4301 23.4352C19.4255 23.5124 19.439 23.5897 19.4695 23.6608C19.5 23.7319 19.5467 23.7949 19.6058 23.8449C19.6649 23.8948 19.7348 23.9303 19.81 23.9485C19.8852 23.9667 19.9636 23.9672 20.039 23.9498L23.815 23.0785C24.1683 22.9971 24.4875 23.3082 24.415 23.6635L23.2931 29.1568C23.2176 29.5266 23.5648 29.8426 23.9258 29.733L26.258 29.0244C26.6195 28.9147 26.967 29.2316 26.8904 29.6018L25.1076 38.2305C24.9961 38.7703 25.714 39.0647 26.0135 38.6018L26.2135 38.2928L37.2646 16.2381C37.4498 15.869 37.1306 15.4479 36.725 15.526L32.8385 16.2762C32.4732 16.3465 32.1625 16.0065 32.2654 15.6492L34.8023 6.85509C34.9055 6.49727 34.5935 6.15704 34.2279 6.22852Z" fill="url(#paint1_linear_50_98)"/>
</g>
</g>
<defs>
<linearGradient id="paint0_linear_50_98" x1="5.64574" y1="9.3584" x2="28.4545" y2="40.3346" gradientUnits="userSpaceOnUse">
<stop stop-color="#41D1FF"/>
<stop offset="1" stop-color="#BD34FE"/>
</linearGradient>
<linearGradient id="paint1_linear_50_98" x1="24.4357" y1="6.94981" x2="28.5617" y2="35.2539" gradientUnits="userSpaceOnUse">
<stop stop-color="#FFEA83"/>
<stop offset="0.083" stop-color="#FFDD35"/>
<stop offset="1" stop-color="#FFA800"/>
</linearGradient>
<clipPath id="clip0_50_98">
<rect width="50" height="50" fill="white" transform="translate(0.5 0.75)"/>
</clipPath>
</defs>
</svg>
