<svg width="51" height="51" viewBox="0 0 51 51" fill="none" xmlns="http://www.w3.org/2000/svg">
<path d="M38.7812 0.5H12.2188C5.74666 0.5 0.5 5.74666 0.5 12.2188V38.7812C0.5 45.2533 5.74666 50.5 12.2188 50.5H38.7812C45.2533 50.5 50.5 45.2533 50.5 38.7812V12.2188C50.5 5.74666 45.2533 0.5 38.7812 0.5Z" fill="#1E1E1E"/>
<g clip-path="url(#clip0_259_275)">
<rect x="5.5" y="5.5" width="40" height="40" rx="10" fill="#1E1E1E"/>
<path d="M35.5163 17.6039L25.9553 32.7301C25.8537 32.8907 25.7072 33.0108 25.5378 33.0723C25.3682 33.1339 25.1849 33.1336 25.0155 33.0714C24.8465 33.0094 24.7007 32.8888 24.6 32.7279C24.4995 32.5671 24.45 32.3748 24.4589 32.1803L24.8416 23.8292L18.6641 22.3957C18.5322 22.3651 18.4092 22.2995 18.306 22.2046C18.2031 22.11 18.1231 21.989 18.0732 21.8523C18.0233 21.7157 18.0051 21.5677 18.0201 21.4215C18.0353 21.2752 18.0834 21.1353 18.1599 21.0142L27.7211 5.88803C27.8229 5.72749 27.9696 5.60744 28.1391 5.54591C28.3085 5.48438 28.4917 5.48471 28.661 5.54683C28.83 5.60884 28.9759 5.72947 29.0765 5.89042C29.177 6.05145 29.2265 6.24358 29.2176 6.43794L28.8349 14.7892L35.0123 16.2227C35.1442 16.2533 35.2672 16.3188 35.3705 16.4137C35.4736 16.5082 35.5536 16.6293 35.6035 16.7659C35.6533 16.9026 35.6715 17.0507 35.6562 17.1969C35.641 17.3432 35.5929 17.4829 35.5163 17.6039Z" fill="#FCC72B"/>
<path d="M25.5039 45.4208C25.2496 45.4211 24.9978 45.3665 24.7629 45.26C24.5279 45.1535 24.3145 44.9973 24.1349 44.8003L15.1008 34.916C14.7393 34.5185 14.5367 33.9803 14.5374 33.4195C14.538 32.8587 14.742 32.3211 15.1044 31.9246C15.4669 31.5281 15.9581 31.3051 16.4706 31.3043C16.9831 31.3036 17.4749 31.5251 17.8383 31.9205L25.5039 40.307L42.203 22.0355C42.5661 21.6383 43.0584 21.4151 43.5718 21.4152C44.0852 21.4152 44.5776 21.6384 44.9406 22.0356C45.3036 22.4328 45.5076 22.9716 45.5075 23.5333C45.5075 24.0951 45.3036 24.6338 44.9405 25.0311L26.8725 44.8003C26.693 44.9973 26.4797 45.1536 26.2448 45.2601C26.01 45.3666 25.7582 45.4212 25.5039 45.4208Z" fill="#729B1B"/>
<path d="M25.4961 45.4209C25.7504 45.4212 26.0022 45.3666 26.2372 45.2601C26.4721 45.1536 26.6855 44.9974 26.8651 44.8004L35.8992 34.9161C36.2606 34.5186 36.4632 33.9804 36.4624 33.4197C36.4616 32.8589 36.2577 32.3213 35.8953 31.9248C35.5329 31.5282 35.0416 31.305 34.5291 31.3041C34.0166 31.3036 33.5248 31.5252 33.1614 31.9205L25.4961 40.307L8.79685 22.0356C8.43254 21.6451 7.94213 21.4277 7.43216 21.4306C6.92219 21.4335 6.43385 21.6564 6.07325 22.051C5.71264 22.4456 5.50888 22.9799 5.50625 23.5379C5.50362 24.0959 5.70232 24.6325 6.05918 25.0311L24.1274 44.8004C24.3069 44.9974 24.5202 45.1536 24.7551 45.2601C24.9899 45.3666 25.2419 45.4212 25.4961 45.4209Z" fill="#729B1B" fill-opacity="0.5"/>
</g>
<defs>
<clipPath id="clip0_259_275">
<rect x="5.5" y="5.5" width="40" height="40" rx="10" fill="white"/>
</clipPath>
</defs>
</svg>
